'{
 ClockCount=192
}
'@ N 001
   AR  DR  SR  RR  SL  TL  KS  ML  DT  AM  SSG-EG
'@ 031,000,008,000,004,035,003,003,000,000,000
'@ 031,016,005,005,003,020,002,001,003,000,000
'@ 031,000,008,000,004,036,003,002,003,000,000
'@ 025,019,005,005,000,020,002,001,007,000,000
   ALG FB
'@ 004,003

'F1 T125 @1 v101 o5 b24r96 v95 o5 a32r64g+32&g+192r48a24r48>c48r12r32 v83 <c48r12r192c64&c96r32. v101 >c32&c192r96 v76 <c48r32 v95 >c32.r48 v83 <<a12&a64r64r96>e64r12c64&c96r24 v101 >e192& e32&e192r192 v83 <c48r24 v95 >e32&e48r192 v83 <<a16&a24r96 v108 >>g+32.r192 v101 a24&a64 v108 b16&b96r32r192g+16&g+192r32r48 v114 >c3&c192r192 v89 <<c24&
'F1 o5 c16r48 v108 >b64&b96r12r192a32r12 v89 <<b64&b96r12r192 v101 >>f+64r24r64g24r8 v108 f+64r12r192 v76 <<e32r12 v89 b64&b96r32. v95 >>g32 v114 b96& b48r16. v108 f+64r192 v64 <<e24r32r48 v108 >>g96r12r64 v89 <<b48r16r24r64 v83 e8&e12&e64r64r96 v101 >b32&b48r192a32&a192r64 v95 g+32r64a32&a48r48 v89 >c48r48
'F1 r16r64 v83 o5 c64r12r192c48r32. v101 >c32&c192r96<b64&b96r64r96 v95 >c32.r64 v101 e48r16.. v76 <e48r16. v101 >f32&f48e32.r192 v76 <e64&e96r24 v101 >e32&e48r96b24&b64a24r96 v108 g+32&g+48a24&a64r32.a24&a64 v83 <e64&e96r48 v108 >a16&a192 v95 <<a4..r192 v108 >>a32r12r32f+48r16
'F1 r32o6 g48r16. v95 f+48r32r48 v101 g32&g192r192 v108 b64&b96r12r64f+48 v64 <<b32r16 v89 b64&b96r12r192 v83 >e48r16 v101 >g32&g192r96 v114 b48r12r192f+64&f+96r12r192 v108 g48r96 r12 v89 <<b48r16.. v83 e8&e12&e32r96 v108 >>e48r16. v114 f48r16. v89 <<c32.r16r96 v120 >>g48r16. v114 a16&a192r192
'F1 r32 v108 o6 f32&f192r64 v101 e48r24 v114 d6&d16r64 v95 c64r12r64f64r16r24 v101 g64r192 v76 r12r64 v83 <c64r12r64 v89 <e64&e96r32 v101 >>g32.r64 v76 <e48 r48 v95 >e48r32.d8&d64&d96r12r64 v108 c48r12r64d48r16. v101 <<<a32&a48r16 v95 >a32.r16r192c24r48 v108 >>e24r192d64&d96r48 v101 c48r48
'F1 r32 v108 o5 b8&b48r12r192 v95 >c48r12r64 v101 <b64r12r64 v89 <<a32r16.>a48r16. v83 c64&c96r64r96 v101 >>e24r192d48r64r96c48r16r192 v83 <<e64&e96 r8.. v101 >b24r96 v95 a24r96g+32r48 v83 r16r96 v89 >c96r12r32 v83 <c64r16. v89 c48r32r192 v101 >c24r192 v83 <c48r32. v95 >c32.r192 v83 <<a16.&
'F1 o4 a192r64r96>e48r12r192c48r24 v101 >e32.r96d+32.r96 v95 e32.r64 v83 <<a12&a192r48 v108 >>g+24r192 v101 a16r32r48a32&a48r192 v89 <c48r64r96 v108 >a16&a96r12r32 v101 <d+24&d+64& d+32&d+48r192 v114 >a6&a16&a192>c32r12r192 v95 <<e48r12r64 v108 >a48r12r64g+48r12r192 v89 <<c24r12a32r12
'F1 o4 d32r16.b48r16r24 v108 >>c4&c32r192 v101 c32r96<b64&b96r48 v95 a64&a96r48b64&b96r64<<a6&a32.r32 v108 >>>e48r48 r12 v114 f64r16r24 v120 g64&g96r16. v95 <c32r12r192<e64&e96r64r96 v108 >>g24&g64 v83 <e64&e96r48 v101 >e48r32.f8&f64r16.. v95 e64&e96r24r64
'F1 r24 v89 o6 d96r16r24 v83 <<c64&c96r16. v95 >>g48r12r64 v83 <<e48r32 v101 >>g32.r192f64&f96r64r96 v95 e48r32r48 v83 <<g8&g32r12r192 v101 >>c48r12r64 v108 d96& d96r16. v101 <<<a8.r32. v95 >c32r64r96 v108 >>e32&e48d32r48 v101 c48r32. v95 <<e8&e32&e192r16r64>>c48r16r24 v89 d64r32r48
'F1 r24 v83 o3 a32r16.>a48r12r64 v76 c64&c96r32 v101 >>e32.r192 v95 d48r32c64&c96r24<g+8r8 v101 b32.r96a24r96 v95 g+64&g+96r64r96a32.r64 v89 >c96& c192r16.. v83 <c64r16.c64&c96r32 v101 >c32.r192 v76 <e64r24 v95 >c32.r64 v83 <<a16&a24r48>e48r12r64 v101 >f32.r192e32&e48r192 v76 <e32&e192r48 v95 >e32&e48 v83 <<a12&
'F1 o4 a96r48 v101 >>g+32.r192a24&a64r32r48a24&a64 v83 <e64&e96r64 v108 >a16&a96r192 v95 <<f3&f8&f192r16r24r64 v89 >e48r64r96 r16r192<d64&d96r16. v114 >>g+32&g+192r16r64 v89 <<c32r16. v108 >>e32r12 v95 <<d32r12 v101 >>d48r16r24 v108 c8..&
'F1 o6 c64&c96r64r96 v101 c32&c192r96<b64&b96r96 v95 a32&a192r48b64&b96r64r96<<a6&a16&a64r192 v108 >>>a64r16r24 v114 b32r48 v89 <<c+4&c+16r48 r16r24 v108 >>b48r24 v95 <<<a6&a192 v108 >>>b16&b64r32r192 v101 <<a48r16. v114 >g+64r16 v89 <d32r192 v120 >>f+6&f+192r32r48 v108 <<d+12&d+192r192
'F1 v95 o4 d+12&d+64r192<g+16r12r64 v114 >>>e64&e96r16. v108 a64r12r192 v89 <<e64&e96r64r96 v101 <a4&a16>a32r12r192 v114 >>b64r96 r24 v95 <<<a6&a16&a192r32. v101 >a48r16. v114 >>g+64r24r64 v89 <<d24 v101 d16.r96 v95 >>f+48r32. v101 <<<e32 v89 e8&e48r12r64
'F1 r96 v101 o4 a8&a12&a32r64 v114 >>a48r12r64b64r24 v95 <<<a4&a32&a48r192 v83 a48r16. v114 >>>b48r24 v95 <<<a16&a96& a12&a64r192 v114 >>>b32&b48r16 v108 a48r16. v114 g+64r24r64 v95 <<<d32r96 v120 >>>f+8&f+48r96 v95 <<<d+4&d+192r24 v114 >e12&e64&
'F1 o4 e64r96 v101 e64&e96r16. v114 >>a64r12r64b48r32 v101 <<<a4&a32&a48r192 v95 >a32&a192r12 v114 >>b64r24 v101 <<<a8.&a64& a64&a96r16>a48r16. v108 >>g+64r24r64 v101 <<<d6&d192r32r192 v108 e8.&e192r12r32 v114 a8&a12&
'F1 o3 a32r192 v101 >>>>c+24&c+64 v108 d12r64r96 v101 <b24r64 v95 a24&a64r96b24r64a32&a48r192 v101 g+24&g+64r64 v95 f+24r192 v101 a16 v83 <c+32r48 v101 >f+32&f+48r96 v89 <<g+16&g+24r48 v83 >c+64&c+96r32r192 v95 >f24&f64r192 v101 c+96& c+32r96d+32&d+48r16 v95 c+64&c+96r64 v89 <<f+12&f+64r32 v101 >>f+16r32.a32&a48r192g+24r96 v76 <f+192r192 v101 >a24&a64b32&b48r192 v95 <<f16..r96 v101 >>>c+32&c+48r96c+32&c+48c+16r192d64&d96&
'F1 o7 d48r192c+12r32r192 v89 <<<f+16..r64 v83 >c+64&c+96r24 v101 >g+32.r192 v89 <<a64&a96r32 v108 >>a16&a192r32.f+32&f+48r96 v89 <<g+8r24r64 v101 >>e24&e64r192 v76 <e32&e192r48 v101 >d+32.r96e64& e32&e192r96c+16r24r64e32&e48 v108 f+16r24r64 v101 c16c+32&c+48r192 v76 <d+64&d+96r32 v95 >c16&c96 v101 c+16&c+64r6r32>c+32&c+48r192 v108 d32&d48r192 v101 c+48&
'F1 o7 c+24r24r64 v83 <<<f+16..r64>c+48r32r192 v101 >g+32&g+48r96f+32&f+48r96a16 v64 <c+32r48 v108 >f+32.r96 v89 <<g+16&g+24&g+64 v101 >>g+32&g+192r48 v95 f32&f48r96 v83 <c+64&c+96r64r96 v101 >d+16&d+192r32r48c+96& c+48r64r96 v89 <<f+16.r64 v83 >c+64&c+96r24 v95 >g+32r64 v89 <<a64&a96r32r192 v101 >>g+24r192 v89 <c+48r32. v108 >b32.r96 v76 r192 v101 >c+32&c+48c32.r64c+32.r192c32&c48r192c+16&c+192r24r64c+16&c+192r32r48 v89 <<<f+48&
'F1 o4 f+12r48>c+48r32r192 v101 >g+32&g+48r192 v83 <<a64&a96r32r192 v101 >>a16 v83 <<a64&a96r64r96 v108 >>f+24&f+64r192 v95 <<g+16&g+24&g+64 v89 >c+48r32r192 v101 >e32&e48r96c+32&c+48r192d+32.r96e32.r96c+24&c+64r192d+16&d+192& d+24r192 v89 <d+48r24 v101 >d+32.r192c24&c64c+32.r192d+32.r64 v95 c16r192 v101 c+12&c+192r6r192e16r24r64c+24r96<b32.r64 v95 a32&a48r96b24
'F1 r64 v101 o6 c+32r64r96d24&d64r192e32.r192f+24r48g+24&g+64r24r64 v95 <<b8&b48r32r192 v101 >>e48r32r192 v89 <<g+16.r48 v101 >>c+32&c+192r64 v108 <b48r24 v101 <a8r24 r96>>d32.r96 v108 e32.r96f+24&f+64r32r48 v101 a16 v108 a+8r192 v101 b96r16r24r64 v76 <<g+48r32r192 v95 >>d16&d96r32. v101 <b32.r96 v95 a32&a48r64b24r64 v89 c+64&c+96r32 v101 >d64&d96&
'F1 o6 d48r96e32.r192f+32.r64g+32.r192 v108 a32r32r192 v101 <<b16&b24&b64 v108 >>f+32&f+48 v95 e48r24 v89 <<g+16&g+24r192 v108 >>c+32&c+48r64 v101 <b24&b64r96 v89 <a32r64r96 v101 >>e32&e48r96 v95 <<f+48r32 v101 >>c+32.r192 v89 <<d32& d192r48 v95 >>d16<<e48r32.>b32&b48r192 v89 <<a6&a16r32r192 v101 >>>>c+32&c+48r96d32.r96c+16r32r48 v83 <<<f+16&f+24r48>c+48r32r192 v95 >g+32.r96 v89 <<a64&a96r48
'F1 r48 v101 o6 a24&a64r24r64f+32.r96 v89 <<g+8 v83 >c+64&c+96r32 v89 >f32&f48r96 v83 <c+32r48 v101 >d+16&d+96r24 v95 c+24r64 v89 <<f+12&f+192r32>c+64&c+96r32r192 v101 >g+24r96a24r64g+24r192 r64 v95 <<a48r32 v108 >>b32&b48r64 v101 >c+12&c+32r96 v108 c+16r32r48c+16r32r48 v101 c+24&c+64r96<a+64&a+96r32<<<b8&b192r32r48>>>>c+24r64 v108 d32&d192r64r96c+32.r192 v83 <<<f+64&f+96r192
'F1 r48 v101 o7 c+32&c+48r64 v95 <<<<b6&b16&b192r24 v101 >>>a24&a64r192 v89 <<b32&b48r16 v108 >>a32&a48r192b6&b192r96f16&f192r32r192 v95 <<b32r64r96>>f24&f64& f192r96 v108 f+12&f+32r8r64r96 v95 e32&e48r192d16&d192r32r48 v101 <b24r96 v89 <a8r192 v83 >e64&e96r32 v95 >d32.r96 v101 e32.r96f+32&f+192r64g+32&g+48r192 v108 a64r32. v95 <<b64&
'F1 o4 b8 v64 b48r96 v101 >>e48r24 v108 e16r24c+32&c+48r64 v101 <b64r32r48 v108 a24&a64r192 v101 b32.r96 v89 c+32r64r96 v101 >d32&d48r192 v108 e32.r96f+32&f+48r192 v83 <e48r64r96 v101 >a16&a192r192 v89 <<e32.r64r96 r32r48 v101 >>b32r12r64 v83 <d48r24 v95 >d24&d64 v83 <d48r24 v95 b32&b192r48a32&a192r64r96 v101 b24r64 v83 c+48r24 v101 >d32&d192r192 v83 <c+48r32r48 v101 >f+24r96g+24&g+64 v108 a64&a96r32 v101 a12&a32
'F1 r192 v108 o6 f+32.r16r192e16r32r48 v101 c+32r64r96<b24&b64r64 v89 <a48r32r192 v95 >>e32&e48r192 v101 <a32.r96>c+24r96 v89 <<d64&d96r24 v95 >>d24r96<g+32&g+192r48b24r64 v89 <<a6&a96& a24&a64r32r192 v101 >>>>c+24r96 v108 d32.r64 v101 c+32&c+48r192 v95 <b24r48a24&a64r96b32&b192r48 v83 <c+48r32r192 v95 >g+32.r192 v101 f+32.r64a16r16f+32&f+192r64 v89 <<g+8r96 v83 b64&b96r64r96 v89 >>f96&
'F1 o6 f64&f96r64<<b32r32 v101 >>d+32&d+48 v95 f64&f96r32r192 v101 c+32r48 v95 <<f+16&f+24r48 v101 >>f+24&f+64r32.a32&a48r96g+24r64 v89 <<a64&a96r32r192 v101 >>b32.r64<<c+16..r192 v95 g+24&g+64r192 v101 >>>c32.r96 v108 c+48& c+64&c+96r192 v101 c8&c48r32<<<<b8&b96r32r48>>>>c+32&c+48r96 v89 <<<f+48r32. v101 >>>c+24r96 v89 <<<b32r64r96 v101 >>>c+12&c+32r192c+6&c+192 v108 <g+24&g+64r64
'F1 r24 v101 o6 b32&b48r24r64a8&a12&a64r64 v95 <<c+8&c+192r32 v101 >>f32.r48<<a8&a12r32. v114 >>a64r16.. b32r64 v95 <<<a4&a16&a192r192 v108 >>>a64r16r24 v114 b64r32. v95 <<<a8&a12&a64r16r96 v108 >>a64r12r64 v114 g+64r48
'F1 r32 v101 o3 d32. v114 >>g+16&g+24&g+64>g+64&g+96r96 v95 <<<d+6&d+32.r64r96 v89 b4&b192r16r192 v95 >e48r12r192 v101 e48r32. v95 <a64&a96& a4&a192r64r96 v114 >>>a96r16r24 v101 b48r32r48 v95 <<<a8..r32r48 v114 >>a64r12r64g+96r16 v101 <<d32&d192 v114 >>f+32&f+192&
'F1 o5 f+16r192 v101 <d24r64 v108 <e16r192 v120 >>>g+12&g+64r64 v95 <<e32r16. v114 <a6&a16&a64>>>a64&a96r12r64<b64r32 v95 <<a8&a64&a96& a8&a32r192 v114 >>>a48r16r24b64r32r48 v101 <<<a6&a16r16r192 v108 >>a64r16r192 v89 <a48r192 v114 >g+64&g+96r32r48 v101 <<d8&d32&d192&
'F1 o3 d24&d64r32r192 v114 >d+16&d+24r192 v95 d+16&d+96r192 v101 <e8&e12r16.>e48r12r64 v114 >>b64r32 v101 <<<a4& a32&a48r48>>>a48r16. v114 b64r24r64 v101 <<<a6&a16&a192r32.>a48r16. v114 >g+64r32. v95 <<d6 v108 >>b48r32<<e16&
'F1 o3 e12&e32r16r24r64 v114 a6&a16&a64r96 v101 >>b32&b48r192a32&a192r64g+64&g+96r32 v95 a32.r96>c48r16r24 v83 <e48r12r192c48r32 r64 v101 >c32r48 v76 <c48r32 v95 >c12&c192r16. v83 <c48r12r64 v101 >f24r64e32.r192d+32.r48 v95 e32&e192r64 v83 <<a16&a24r48 v101 >>g+32.r96a32&a48 v108 b16r24 v114 g+96&
'F1 o6 g+32.r24r64 v120 >c3&c96r96 v114 c12&c192r192 v108 <a32r16r24r64f+48r12r64g64r16. v101 f+64r32r48 r64g8&g64r96 v108 a48r12r64g48r16. v101 f+64r16 v95 g6&g96r12r192<<<b48r12r64 v83 >b48r16.. v101 >>e192&
'F1 o6 e12r8r32r192<b32.r192a32r48 v95 g+64&g+96r32r192a32&a192r48>c64r16r24 v83 <e48r16.c48r32. v101 >c32&c192r192 v83 <e48r24 v95 >c32.r64 v83 <<a16& a32&a192r64r96 v76 >e64r12r64 v101 >f24r64e24r96d+24r48 v95 e32.r96 v101 b32.r64a32r48g+32&g+192r64a32&a48r96 v89 <<a16&a96r64r96 v114 >>g+32.r16r96>c8&c48&
'F1 o7 c8.r96 v95 <<c12r192 v101 >g64&g96r192 v108 b64&b96r12r64f+64r12r64 v101 g48r12r192 v76 <<e32&e192r32r192 v101 >>g32&g192r192 v108 b64&b96r16.a48r16r64 r48g64r16. v101 f+48r16r192g32r192b64r12r192 v108 a64r16r24 v101 g48r16r24 v83 <<b48r16r24e6&e16&e64r192 v108 >>e48&
'F1 o6 e192r16. v114 f48r16. v95 <<c32&c48r16 v120 >>g16&g192r32r48 v95 <<e32r48 v114 >>g32&g48 v108 f24r96 v101 e48r32. v120 <b6&b16r96 v101 >e48r16r192 r32 v95 f48r16. v101 g48r12r64 v89 e64r16r24<<e48r32 v101 >>g24r96 v95 f48r32e48r32. v83 <<g6r12r192 v101 >a48r12r64 v108 >d64
'F1 r16. v101 o3 a8.r24r64>c24r96 v108 >>e32.r192d64&d96r48 v101 c64&c96r24 v108 <b6&b32r32r192 v101 >c48r16r24 v95 d64r16r192 r32 v89 <<<a48r16.>a48r16. v83 c32r32 v101 >>e24r96 v95 d64r32c48r24r64 v83 <<e6&e32.r48 v101 >b32&b48 v95 a32&a192r48g+48r64r96 v89 a32&a192r32>c64r64r96
'F1 r12 v76 o5 c48r16. v83 c48r32 v101 >c24r64 v76 <c64&c96r48 v95 >c24&c64r96 v83 <<a12&a64r64r96>e48r12r192c48r24 v101 >e32.r96d+32&d+192r48 v95 e24r48 v76 <c32&c48r32r48 r192 v101 >g+32.r192a24&a64r32r48a32&a48 v89 <c48r32 v108 >a16&a96r16r24r64 v95 <d+16..r192 v114 >a8..r48 v95 <<e32r16r64>e64&e96r32.
'F1 r32r48 v83 o4 d64&d96r12r192 v89 b64&b96r12r192c32r12r192a64&a96r16.d32r12r192 v101 >>d64r16.. v108 c6&c16&c192& c32r192 v95 c24r192 v101 <b64&b96r64r96 v89 a48r32b32r96>c192r4 v108 e48r12r64 v114 f64r16r24 v95 <<c6&c64r24r64e64&e96r96
'F1 r48 v114 o6 g32&g48r32. v101 e64&e96r32r192 v114 d6&d32.r48 v101 e64&e96r12r64 v95 f64r16r24 v83 <<c64&c96r16. v101 >>g48r12r64 v89 <<e48r64r96 v101 >>g32.r192 r192 v95 f64&f96r64r96e48r24r64 v83 <<g8.r24 v101 >>c48r16r24 v108 d64r12r64 v101 <<<a8.&a64r32 v95 >c32&c192r64r96 v108 >>e32.r32r48
'F1 v101 o6 c48r32r192 v108 <<e8&e64&e96r16. v95 >>c64r12r64 v101 <b48r12r64 v89 <<a32r12r192 v83 >a48r16r24c32r32 v101 >>e24 v83 <c64&c96r32 v95 >c64&c96r32 r96 v89 <g+16..r8r96 v101 b24&b64a32&a192r48 v95 g+64&g+96r32a32&a192r48>c64r16.. v76 <c48r16r64 v89 c64&c96r24 v101 >c32&c192r192 v76 <c64&c96r24 v101 >c24r64 v83 <<a24&a64&
'F1 o4 a24r48>c48r12r192c48r32. v101 >e24r96d+24r96 v95 e32&e48r96 v83 <<a12&a192r64r96 v101 >>g+24r96a24&a64r32r48a32.r96 v89 <c64r64r96 v108 >a16r192 v120 >c8&c64&c96& c4&c16r192 v95 <<<e64&e96r12 v89 >e48r16.. v83 <d32&d192r12 v108 >>g+48r16. v89 <<c16r16 v101 >>e48r16
'F1 r64r96 v89 o4 d32r12r192f48r16r24 v108 >>c8&c12&c32r32r192 v101 c32r96<b32r64 v95 a48r32b64&b96r64r96<<a6&a16r96 v89 a48 r24 v108 >>>a48r32<b48r64r96 v89 <c+4&c+24r64 v108 >a48r32r192 v101 >a64r32 v114 <b32r32r192 v95 <<a4&a48r192 v114 >>a32r48 v101 >a64r32r192
'F1 r192 v114 o5 g+64&g+96r64r96 v108 >g+64r48 v101 <<<d6&d16r48 v120 >>a6&a96r32r48<e12&e32r192 v114 e64&e96r32 v83 >>e32&e192r64 v108 <a48r32>a32r64r96<b32r48>b32&b192& b4&b32r96<a48r32. v101 >a32r96 v89 <<a64&a96r64r96 v108 >>b8&b12&b64r96 v101 b16&b192r32.a64r32r192 v114 <g+64&g+96r32 v95 >g+48r48<<<f+192r192 v114 >>f+32&f+192&
'F1 o5 f+16&f+24&f+64r192 v108 <<e16r192e6&e32r64 v89 r32 v114 a4&a96r32. v108 >>>a32r64<b32&b192r48 v95 <c+8&c+64&c+96& c+8&c+48r64 v108 >a48r32r192 v101 >a48r32 v114 <b64&b96r32r192 v95 <<a4&a48r96 v114 >>a64&a96r48 v101 >a64r24 v114 <g+64&g+96r64r96 v108 >g+48r64 v101 <<<d8.&d192&
'F1 o3 d24r48 v120 >>a6&a96 v89 <<b16r32. v95 >>>g+12r32 v83 e32&e192r64 v108 <a64&a96r64r96>a32&a192r48<b32r48>b4&b16&b96 r192<a64&a96r24 v101 >a32r96 v89 <<a64&a96r32 v108 >>b8&b12&b64r192 v101 b16&b192r32r48a32r64 v114 <g+64&g+96r32 v95 >g+48r64r96<<<f+8&f+32r64 v108 e32&e48r96e16.&
'F1 o3 e16&e24r64 v95 a3&a8&a64r96 v101 a3&a16& a16.r192a3&a16&a64r96 v95 >a32.r48<a3&a16&a64&
'F1 o3 a32.r192 v83 a12r12 v101 >d16&d24&d64 v108 d16..r192 v101 d16&d192r48 v95 <a16&a24r32r192 v108 >>>>d12&d32r192<<<a16&a24r192a12&a192& a192r192 v95 <e32.r12r32 v101 >e16&e24r192 v114 e16..r192 v95 >>e8&e64r192 v108 <<a8&a96r96 v95 a16..r192a16..r192 v101 a12&
'F1 o4 a6&a64r192a12&a32 v108 a12&a32 v95 a16r192<a2&a64 v114 >>>a3&a8&a64r96 v76 <<c+3&c+8&c+32r96 v101 <e64&
'F1 o3 e3&e8&e96 v89 >a32&a48r96 v76 e32.r192 v89 >c+64&c+96r32r192 v76 e24r192 v95 >a64&a96 v101 >c+64&c+96r64r96 v76 <<e24r48 v83 c+48r64r96 v95 >>c+64&c+96r192 v89 <e32&e192r96 v76 <<a64&a96r192 v95 >>>c+96& c+4&c+16&c+96r64r96 v83 <<e64&e96r32 v95 >a32r24 v76 <e32&e192r64r96 v83 c+64&c+96r32 v89 e32&e192r48<a64&a96r32r192>e32&e192r64c+32r64r96e64&e96r32 v101 >>d24r96c+32&c+192r48 v95 <b192&
'F1 o6 b48r32 v83 <e32r48 v108 >>d24r96c+32&c+48r96 v89 <<c+32r64r96 v83 e64&e96r64r96 v114 >>d3&d8 v108 d64&d96r32. v89 <<e32&e192r64 v101 c+32r24r64 v76 e64&e96r96 v95 <a32&a192r32 v76 >e24r48 v95 c+64&c+96r32r192 v89 e32r24 v114 >b2&b12&b32r12
'F1 r32r48 v89 o4 a8&a192r192 v101 a12&a32r192a4&a64&a96 v95 a16&a24r96 v101 a12&a32r192a16&a96 v95 <a16..& a4&a6r192 v114 >>>a4&a6&a16&a64r192 v95 <<e16&e64&
'F1 o4 e24&e64r192 v101 a12&a32 v108 a12&a32r192 v101 a16..r48 v95 <g+192r16r24r64 v108 >e16&e24r96e12&e32 v114 >>e8r64 v95 <<e16&e64& e4&e32r96 v114 >>c+12&c+192r64 v95 <<c+3&c+8&c+96r192 v83 <a8&a192&
'F1 o3 a3r192 v95 a4r192a4&a24r192 v114 a16..& a48r8r32>a8&a64r8r32c+4.&c+64r1r1r1r1r1r1r1..r32r48

'F2 @1 v76 r6r16r192o4 a16..r64o5 e64r16r24 v64 e64&e96r16r64 v76 e64&e96r16. v101 >e48r16r24 v76 <c64r12<a192r96 v101 >>f32.r96 r32. v76 <e32r12r192 v64 c16&c96r32r48 v76 e64&e96r16r64 v89 <a12r48>c48r64r96 v108 >a16&a192 v101 <<a4.&a96&
'F2 o4 a16r48e64&e96r12r192 v108 >>f+64&f+96r12r192 v76 <e24r16r96 v108 >a64r12r192a32r16r24 v101 a64r16. v89 <<b64&b96r12 v108 >>a48r12a96& a96r16r24a64r12r64 v76 <<c96r12r64 v101 >>d+48r16r24r64e12r3r16 v89 <<a24&
'F2 o4 a32&a48r64r96 v76 >e64r16.e64&e96r12e64&e96r16r24 v83 <a16.r48 v76 >c32r12 v83 c64r16. v108 >d+32.r16 v83 <<a12&a64r64r96 >e48r12 v114 >b16&b64r64r96g+16r24r64>c3&c96r192 v101 <<c16.r48 v108 >b64&b96r12r64 v101 a48r16
'F2 r24 v83 o6 e48r12 v101 a48r12 v108 a32r16r24 v101 a48r16. v108 g48r16. v101 f+64r16. v108 a64&a96r16r24a48r16. v83 <<<b48r96 r12 v95 >>>d+48r16..e12&e32r8r96 v101 c48r16.d64r12r64 v114 g64&g96r16. v95 <c48r16.<e32r48 v114 >>g48&
'F2 o6 g32&g192r192 v83 <e16r24 v101 >f16r16<g16&g24r64 v89 >e64r16r24 v83 d32r12<<c32r12r192>>e64r16r24 v101 a32&a48r32. v95 f32r192 r12r192<b8&b64&b96r12r64a64r16r24 v108 b64r12r64 v114 >e64&e96r12r192e24&e64r24r64 v83 <<g96r16r24 v89 >c24r24
'F2 r32 v101 o4 e8&e64&e96r8.r64 v95 >>d48r12r64 v101 e48r12r64 v95 c48r12r64 v101 f32.r6r64 v89 <g+64&g+96& g+12&g+192r4r32r192 v95 a32&a48r48 v83 <a8&a64r16. v101 >>d24&d64r24r64<b32r12 v76 c12&c192
'F2 r32o5 c64r16.e64&e96r12 v83 c64&c96r16r24 v76 c24&c64r16 v83 c48r16r96 v114 >b16&b64r64r96g+16&g+64r32. v120 >c6&c96& c4&c32&c192r192 v101 <<<e64&e96r16. v114 >>b64&b96r16. v83 <<d64&d96r12r64b48r16. v101 >>a48r16. v95 e64&e96r12r192
'F2 r192 v101 o6 f64r16r24 v83 <<f48r16.. v89 a64&a96r12a8&a96r16r64e48r12r32 v101 a6&a32.r32 v108 >>c64r64r96 r12d64r16r24 v95 <<c32&c48r16r192 v120 >>g16&g96r32. v114 a16&a192r32r192 v101 f32&f192r12 v114 d6&d32.r32r192 v89 c48r16
'F2 r24o6 f96r16r24 v101 g48r16r24 v76 <c64r12r64 v101 >a24&a64r32. v76 <e32r16. v89 >f8&f32&f192r12 v95 <a48r12r64 v108 b96& b96r16. v114 >e12&e32r192 v101 <<a16&a192r32r48 v108 >>f16&f192r32r192 v89 <c32r12r192 v108 b8&b64&b96r12r192 v89 a64r12r32b96r32r48
'F2 r32. v95 o6 e48r16r24 v89 c64r16r24 v95 f32.r24r64 v76 <c64&c96r12r64 v83 <e6&e16r4 a16.r48>e48r16. v101 >d16&d192r32r192 v76 <c48r16r24 v95 >e48r12r64 v76 <c32&c192r12 v83 c48r12r192c48r16. v76 c16&c64
'F2 r32r192o5 e64&e96r16r64 v108 >b16&b96r32 v114 g+16r24r64 v120 >c3&c8&c96 v101 <<<e24r16r64 v114 >>b64&b96r48 r16r192 v76 <<e32r16. v64 >c192r16.. v108 >a64&a96r16. v83 <<e48r16. v108 >>f48r16. v89 <<f48r16.. v83 a32r12 v89 a12&a64&
'F2 o4 a192r64g+48r16r192 v76 a24&a64r16r64 v101 a8&a12&a32r96 v108 >a64&a96r16. v114 b96 v95 <<a3&a64&a96r64 r16r24 v89 >a48r24r64c+6&c+16&c+192r32r192 v108 >a64r12r64 v114 >g+64r16 v101 <<<d8..r32. v120 >>>a12&a192&
'F2 o6 a12&a64r192 v101 <<<e8.&e64r16r64 v95 >e32r16r96 v114 >>b64&b96r16 v95 <<c+4&c+64r96 v89 <a32r12r192>a48r192 r32r48 v83 c+8..r24r64 v89 <a64&a96r12 v114 >>g+32r24 v101 <<d8&d32&d192r16r64 v89 b8&b192r192 v101 >e32r12
'F2 r64 v108 o3 a6&a16&a192r64 v114 >>a64&a96r16.b64&b96r16r192 v95 <c+4r48 v108 >>a96r16.. v114 <b96r16r192 v83 <c+32&c+48& c+8&c+32r16 v108 >a64r12r64 v114 g+64r12r64f+8&f+64r32 v89 <<f+32.r192 v95 f+6&f+96 v101 e8&e64&e96&
'F2 o3 e16r12 v89 >a24r16r96e32r16 v95 c+6&c+16&c+64r48 v108 >>a48r12r64<b64r16 v89 <c+6&c+64& c+64&c+96r16r192 v108 >a96r12r64 v114 g+96r12r64f+12&f+32r192b64r32r192 v108 <<<e192r32 v89 >b8&b96 v95 b32r16r24 v127 >>>a8&a12&
'F2 o6 a64&a96r12r32 v101 >c+16&c+64r32. v83 <<<f+16&f+24r48>c+48r12r192 v76 c+48r12r64 v101 >g+32&g+48r16r192 v64 <c+12&c+32r96 v101 >g+32&g+192r16r96 v83 <c+64&c+96& c+192r12 v89 <b64&b96r16. v101 >>f+32&f+48r96 v95 f32&f48r96 v83 <c+48r32 v101 >g+24r96 v76 <f+192 v83 c+64&c+96r16r64 v89 <a48r16.. v101 >>>c+24&c+64c32.r64 v76 <<f+64&f+96r32 v101 >>c32.r64 v89 <<c+64&c+96r24r64
'F2 r32r192o5 c+32r32 v95 >b32r48a16r192 v89 b8r32. v76 <c+48r12r64 v108 >g+32&g+48r16 v76 <c+12&c+32r192 v101 >g+24r12c+32&c+48r16r192 v76 <c+96& c+16.r96 v95 <g+12r32 v83 >d+48r24 v108 >d+32&d+48r96 v83 <d+32&d+192r16r64 v76 f+24r16. v83 c+4&c+96r64 v64 c+16r192c+24r48
'F2 r24 v95 o6 b24r64a24&a64r96b32.r96 v101 a32&a48r16r192 v83 <<a64&a96r16. v108 >>g+32&g+48r16r192 v95 f16r32r48 v83 <c+64&c+96r16. v89 <b64&b96r12 v95 >>f24r32 r32. v101 f+32.r64 v95 f24r96 v101 f+16r32r48a32.r24r64 v89 <<a48r16r24f16&f24&f64r192 v83 >c+48r16.c+48r32r192 v108 >>d32.r64 v83 <<c+48r32 v101 >b32&b48r96a48&
'F2 o6 a32&a192r96b32.r64 v83 <<a48r12r192 v76 >c+64&c+96r12r64 v101 >g+24&g+64r16e24&e64r24r64 v95 g+32&g+192r12 v83 <c+48r12r64c+48r12r64 v89 <g+16& g+32.r192 v101 >>f+24&f+64r16 v89 <d+64&d+96r16r64 v83 f+48r16..c+6&c+16&c+192r12 v101 >d16&d192r16r24 v89 <<a16&a24&
'F2 o4 a64r192 v83 >c+64&c+96r12r192 v76 c+32r12r192 v89 c+64&c+96r64r96 v108 >a64&a96r32. v101 a12&a32 v108 f+32&f+48r16e16&e192r24 v83 <e32r12r192 v108 a32&a48r192 v101 b32&b48r192 v89 c+32r64 r16r96 v83 c+64&c+96r16r96 v101 >g+32.r16r64 v89 <<e64r12r32 v83 >d48r16.. v76 d48r12r64 v101 >c+24r16r64 v89 <<a16..r96 v101 >>c+64&c+96r24r64
'F2 r32 v83 o5 c+64&c+96r16. v89 c+32&c+192r12 v108 >a12&a32 v89 <d64&d96r12r192 v83 <b16&b24r48 v76 >d32r12r192 v101 >c+24r16r64<a32.r16r192b48& b48r16r96 v95 g+64&g+96r16. v101 a24&a64r16r96 v95 <a16&a24r8r64r96 v76 a32r64r96 v95 >>b32&b192r48a32.r48b32r64r96a32.r16r192 v76 <c+64&c+96r48
'F2 r16r64 v108 o6 g+24&g+64r16r96 v95 f32&f48 v101 f+32.r192g+32r16. v89 <<b32r12b64&b96r12 v101 >>f+32.r64r96 v95 f24r192 v108 f+16r24r64 v95 <<a32r16r192 r64 v101 >>a32&a48r16r192<<c+8.r32r48 v83 >c+32&c+48 v101 >>c32.r64 v95 <<c+32r12r64 v101 >>d12&d32r192 v108 d32.r16r192 v89 <<<f+64&f+96r16. v101 >>>d64&d96&
'F2 o7 d96r16r64 v108 d3&d48r64r96<g+24r32r192 v95 <<c+16&c+24&c+64r192 v89 c+16&c+24r192 v95 c+8&c+96r12 r48 v89 a6&a16&a192r8r64 v101 >>c+24r16r64 v95 <a32.r64b24r64 v101 >c+32r12r192 v83 <c+64&c+96r12 v89 c+32r16. v101 >a96&
'F2 o6 a16..r192 v83 <d48r12 v89 <g+16&g+24r48 v83 >e32r12 v101 <a16&a24&a64>>c+32&c+192r12 v89 <c+48r12 v101 >g+24r12 v108 a+16&a+96& a+32&a+48 v89 <d64r12r32 v76 <g+64&g+96r16. v101 >>c+32&c+192r12 v95 <<a16&a24&a64r16r24r64 v101 >>e32.r16 v83 <c+48r16. v95 <b12&b32&
'F2 o4 b64 v89 >d64r48 v101 >e48r32. v89 <<g+16&g+24r64r96 v83 >d32r12 v101 >c+32r12 v89 <<f+64&f+96r12r192 v101 >b24r16r96 v89 <e32r12 v101 >a16&a96r16 v95 <a24& a16r4r48 v83 f+12&f+192r32a48r16. v89 a64&a96r16. v83 >c+64&c+96r12r64 v95 >f24&f64 v101 f+32.r96g+32r24
'F2 r32. v83 o5 c+32r12 v95 <b64&b96r16.>>f+24r48f32&f192r64 v89 <c+64&c+96r32 v101 >g+32&g+192r48 v89 <<a32r12 v83 >c+48r12r64 v101 >>c+24&c+64c+32&c+48r96 v89 <<c+32&c+192r16r64 v95 c+48& c+192r12r192 v108 >>c+16&c+192<a+24r64>d12&d32r192d24r16r64d32.r16r64 v83 <<<f+48r12 v95 <b8&b12&b64r64 v89 >g+32r64r96 v101 >>a64&
'F2 o6 a32&a192r64 v89 <<b64&b96r96 v108 >>g+32&g+192r64r96 v95 <<c+6&c+16&c+192r192 v108 >>f16&f192r32r192 v83 <<g+64&g+96r12r64 v101 f+8&f+12r32.>a64r16.. v108 b96r16r64 v95 <c+4&c+64&c+96r96>a32r12 v108 b96r16r96 v89 <c+8.&c+64r16r96 v108 >>a64r16r24g+96r48
'F2 r32 v89 o3 e96r192f+6&f+96r32f+16r192 v108 >d+16&d+24&d+64r192 v114 >>b48r16<<e8&e48 v120 >>e32&e48r16r192 v114 a64r16. v89 <c+96r12 <c+4r32 v101 >a32r12 v108 b64r16r96 v83 <c+8.&c+64r24r64 v108 >>a64r16. v114 g+64r12r192 v95 <<<a24&
'F2 o3 a16r64 v114 >>b64&b96r64r96 v95 <<b8&b32&b192r48 v89 e32r12r192 v127 >>>a6&a16&a192r64 v108 <a64&a96r16. v114 >b64r16r192 v89 <<c+12&c+32& c+8&c+64&c+96r64 v101 >a32r12r192 v114 b96r16r64 v89 <c+6&c+32r16r64 v95 a64r16. v108 >>g+64&g+96r24r64 v95 <<<f+8&f+32&
'F2 o3 f+32.r16 v120 >>a6r96 v89 <<g+24&g+64 v120 >>>g+8&g+64r12r64 v108 <a64&a96r12r64 v89 <e32r32. v95 c+6&c+32.& c+32.r32>a64&a96r12 v114 b48r16r96 v89 <c+6&c+32.r32. v114 >a64r16r24 v108 >g+64r32. v89 <<<f+8&f+48r64 v108 >>>b64&b96r16r192 v89 <<<b48&
'F2 o3 b16.r64 v95 >e64&e96r16r24 v120 >>a8&a12&a32r8r12r32 v83 <<a16..r96>c48r16. v76 e64&e96r48 r16r192 v101 b48r16. v95 >e48r12r64 v83 <e64&e96r16.c64&c96r12c64&c96r12r64 v76 c12r32r192e64&e96r12 v89 <a16.r48
'F2 v83 o5 e48r48 v108 >a16&a192 v89 <<a8&a12&a32r192>c12&c64r192 v101 c16..r192<e32&e192r16.>>a48r12r64 v89 <<b48r12r192 v108 >>a64r32r48 r24 v114 a8r192 v108 f+64r12r64 v83 <<e192 v89 >>e64r12r64 v101 a96r12r192 v108 a16&a24&a64r96f+48r12r192g48r12r64 v101 f+64r12r32 v89 <<e192&
'F2 o4 e8..r4 v83 a16..r96>c48r12r64 v76 e48r12r192c48r12r64 v95 >e48r24 r16 v76 <c32r12c48r16. v89 c48r16. v83 <a16.r32>c48r16r96 v108 >b16r32r48 v89 <c48r48 v108 >a16&a96r8 v89 <e48&
'F2 o5 e12&e192 v95 c12&c64r96 v83 e12r96 v108 >a32&a192r12r32 v95 a64r16.. v83 <<b64&b96r16r96 v101 >>f+48r12 v108 a64&a96r16r24 v83 <e64&e96r16r96 r64r96 v89 >e64r16. v101 a64r12 v108 a32&a192r12r192f+64r16r24 v83 <<<b48r16r24 v95 >>>f+64r16.. v101 e12&e192r6c64&
'F2 o6 c192r16. v108 d64&d96r12r192 v120 g64&g96r12r192 v95 <c16r24r64 v114 >a16&a96r32. v83 <e64&e96r16r64 v114 >d6&d16r96 v95 c48r16r192 r32 v83 d32r12r192<<c32r12 v101 >>g64r16r24 v95 a32&a48r24r64 v76 <<e24r12 v89 >>d8&d64r16.. v101 c64r12r64 v108 <b64&
'F2 o5 b96r12 v120 >e12&e32r96 v101 <<a16r24r64 v114 >>f16&f192r32r192 v95 <c32r12 v108 <e8.&e192r24 v95 >a48r16r24b64r16r192 r32>e48r16.c48r16r24f32.r24r64 v83 <c48r16r24 v95 b12&b32r3r48 v76 <a32&
'F2 o4 a16&a192r48>e48r8.r64e32&e192r16r96 v95 >e64&e96r12r64 v83 <c48r12r64 v76 e64r16.c64&c96r16. v83 <a16.r96 r64>c48r16r64 v95 <a12&a192r64 v114 >>g+16r24r64 v120 >c4&c6&c16 v114 c32r12 v83 <<<a64&a96r24
'F2 r32r48 v108 o6 a48r12r64g+48r16. v101 a48r12r64e48r16.f48r16r24 v89 <<b48r16r24 v83 e64&e96r12 v89 a16&a24&a64& a192 v83 e64r16r96 v89 e32r16r24<a6&a16&a192r48 v101 >>>c48r12r64 v108 d32r12r192 v120 g12&g32r192g16&g96r32. v114 a32&a192&
'F2 o6 a32r32r192 v108 f32&f192r12 v114 <b8&b12r64r96 v89 >c24r16r64d64r16.. v101 g64r12r64 v89 e48r12r64 v101 a32.r32r48 r8r96 v89 f8.&f192r32r192 v95 <a48r16r24 v108 b96r16r24 v114 >e12&e32 v101 <<a12&a192r32r192 v114 >>f16&f96r48 v89 <c32&c192r64r96
'F2 r16 v108 o5 b8&b64r12r64 v95 a64r16r24>d64r16r24e48r16. v101 e48r12r32 v95 f24r24r64d64r16. r64 v83 <<e6&e16&e192r8r12r32a12&a64r48>e48r12r192 v101 >d32&d48r32. v83 <e48r16.. v76 c32&c48&
'F2 o5 c24&c64r192<a12&a192r48>e64&e96r16. v83 c48r16. v76 c12&c32<a32r16r96 v108 >>b16&b64r64r96 v114 g+24&g+64r16r192 v89 <<f8&f48& f4&f32.r64r96 v114 >>>c64&c96r12r192<b48r12r64 v108 a64r16r24 v83 <c48r12r64 v108 >a48r12r64 v83 <<a48r16
'F2 r32 v108 o6 f64r16r24 v101 d64r12r32 v89 <<a48r12a16..r64g+48r16r96 v76 a64&a96r12r32 v101 a6&a16r192 v108 >a48& a96r12r192 v95 <<a3&a192r96 v101 >a32&a192r48 v95 >>c+192r24 v89 <<a32r24r64c+6&c+16&c+64r96 v108 a32.r24r64
'F2 r96 v95 o4 a48r16. v114 >f+8.&f+192r32<d+12&d+192 v95 d+16&d+64r192 v108 >>b64r24 v114 <g+8&g+64r12r64 v101 <e32&e192r16 v89 e64&e96r64r96 v101 <a32& a4&a32&a192r12r32 v108 >>b32r32 v95 <<a4&a32&a192r16r24 v89 >>b16&b96r192 v101 <<d32&d192r96 v95 d48&
'F2 o3 d16.r96 v89 d24r32. v114 >e16..r96 v108 >e16&e64r64 v101 <<a64&a96r96 v83 e192r192 v120 >>>a6&a16&a192 v108 <a24r12r192 v95 <<a6&a64& a8&a64&a96r96 v101 >a32&a192r64r96 v95 >>c+192r24 v89 <<a64&a96r24r64c+4r96 v108 a24r16r192 v95 a48r16. v120 >f+8&f+32&f+192&
'F2 o5 f+32r32 v114 <d+12&d+192r192 v95 d+16&d+96r192 v108 >>b64r32r192 v114 <<e16&e24&e64e32r16. v101 e32&e192r16r192 v89 e48r64r96 v101 <a4&a16&a192 r12r32 v108 >>b32r32 v95 <<a4&a24r12r64 v89 >>b16&b64r32 v108 f+8&f+32r48 v101 r32r48 v114 <e16.&
'F2 o4 e64&e96r192 v108 >e16&e96r24r64 v114 a2&a3&a192& a8&a32&a192r16r24r64 v95 <a12&a32a12&a32r12 v89 c+4.&c+32&
'F2 o4 c+16&c+96r96 v95 d8&d192r3r48 v108 >>>d16&d192r32r48<<<a16..r192 v114 >>a16.. v108 a12&a192& a192r32 v101 <<<b3&b8&b96r192 v89 >e3&e8&e32&
'F2 o4 e32r192 v108 e3&e8r96 v95 c+3&c+8&c+64&c+96r96 v89 <a3&a8&a192r192 v95 a16r12r32>a16..r192 v101 a16..r192 v108 a12&a32r192 v114 >>e192&
'F2 o6 e16..r192 v108 <<e16&e24r192 v101 e16&e24&e64r192e16&e24&e64r96>>a8r32r48 v95 e24 v83 <<a32&a192r8r48>e32r32 v89 >a32r64r96 r32 v64 <e192r24 v76 c+48r64r96 v83 e32r48<a64&a96r64r96>e24r48 v89 c+64&c+96r32r48>e32&e192r96<<a32r4.. v76 a32r48 v83 >e32&e192r48c+192&
'F2 o5 c+48r32 v95 >>c+32&c+192r64 v89 <<<a32r48>e32&e192r64r96 v101 >b24r64>c+48r32r192 v95 <<<a32r32r192>f+32.r96d24r64f+24r192<a32.r64>f+24r96d24r96f+32&f+192r64r96<a32&a48r16r64 v108 >>>d64r16 r24 v114 d32r16. v108 d48r16r24r64 v95 <<<e32&e192r32. v83 >e12&e192r192 v95 e8&e192r96e16.r96e4&e48&
'F2 o5 e4&e6&e64r96 v114 >a4&a6&a32r192 v89 <<c+16&c+24& c+3&c+16&c+64r96 v95 <a4..&a64r192 v101 a16&a24&a64&
'F2 o3 a4.&a32r48 v114 >>>>c+16&c+24&c+64r192 v108 <g+12&g+32>c+12&c+32<<<e8&e64 v120 >>c+16&c+64& c+4&c+32r96 v114 >c+12&c+192r48 v95 <<<e4&e192 v101 a12&a32r96 v120 >>>e12&e32r96 v101 <<<e16.&
'F2 o4 e3&e32r96e8&e12&e64r192e4&e96r64r96 v120 >>a16..& a64r6a8&a96r8r32 v114 <<a4.&a64r1r1r1r1r1r1r1..r32r48

'F3 @1 v101 r4r6r16o6 d32&d48r32r48o5 b32&b192r12r192 v64 r8.. v76 e32r24 r32. v108 >d+24r12 v95 b24r192 v101 a32.r64r96 v83 <c24r16.. v101 >a32.r96 v76 <e64&e96r6r32. v95 c16..c12&c64r96 v89 e24&
'F3 o5 e16r8r48 v83 e48r12r192 v101 >g64r16. v89 <<b24r16r192 v101 e64&e96r16r24 v76 e24r16r192 v108 >>g48r16. v95 f+64r12r192<<e192& e48r12r64b32&b192r16r64>>e96r12r64 v101 f+64r2r8r64
'F3 r8.r192o6 d32&d48r32r48 v76 <c64&c96r16r24 v64 c64&c96r8.r64 v76 e48r12r192 v83 c48r12r192 v76 c192r16r24r64 c48r12 v95 <a16.r64 v89 >c48r8r12r64 v95 e12&e32c12&c64r192e12r192 v101 >g64&g96r192<<e32r16. v83 >e48r24r64
'F3 r32.o4 b32&b192r16r192 v89 b48r12r192 v95 e64&e96r12r64 v83 >e48r12r64 v89 >e64r16. v108 a64r12r64 v95 <<e64&e96r16r24 v89 b32r12 v95 >>e64r96 r12 v101 f+48r2r16. v108 e48r16.e48r6
'F3 r8r48 v101 o4 g6&g16r8r48 v64 >b48r12 v89 >e48r12r64g32&g192r8.. r16. v83 <<g8&g64&g96r4r16r64 v108 >>c48r16.c32.r16r96 v114 f16&f96r16r24r64
'F3 r32 v108 o5 g+8&g+48r4r16r64 v95 >c48r16r24 v101 e64r4r16r64 v95 <b64&b96& b12&b192r3r8r64r96 v83 e48r8r12 v64 r16.. v95 >e64&e96r16
'F3 r8r64r96 v101 o6 f32&f48r32r48 v76 <e64r16.. v95 >b32&b48r192 v101 a24r48 v76 <e48r16r64 v95 <a16.. v83 e32r12 v95 f6&f96& f24&f64r192 v83 f16.. v120 >>b16&b24&b64r16r24r64 v83 <<e32&e192r12 v76 e64&e96r16r24f32r6r32 v83 e48r12r192
'F3 r8 v95 o6 d64r12r32 v83 <<e64&e96r12r192 v89 e16..r192g+64r16r64 v83 g+64&g+96r16.. v108 >a12&a64r8. r8.r64>e64&e96r16.e32.r4r32. v101 <<g6&g32.r16r24r64
'F3 r8r32r192 v89 o6 e64r16r24e64r4r16r64 v95 d8&d32r8.. r16.. v114 c16..r192 v120 e16&e192r4r32 v108 <g+8&g+64&g+96r4r64r96
'F3 r32. v89 o6 c48r16r24 v95 e64r3<b12&b32r3r32 r6r16 v76 e192r16.. v101 b32&b192r16r64 v76 c16&c24&c64r16r24r64e192r16r24 v101 >d+24r16r96 v95 b32&b48r192 v101 a48&
'F3 o6 a48r64 v83 <c32&c192r16r192 v89 <a16&a64r32>c48r8r12r64 v95 <a16.. v89 >d+16..r192d+12&d+32 v114 >>c32&c48r16r96 v89 <<<a48r48 r16r192 v108 >>a48r16r24 v76 <<f48r6r16a48r16r64e32&e48r16 v89 b32r12r64 v83 e64&e96r16. v89 e16.&
'F3 o4 e64r192 v101 >b48r16r192 v83 <e64&e96r16.. v108 >a6&a16&a64r8r12 v95 <e4&e32&e192r64 r16r24 v108 >b64r16r64<e8..r32r192>>a64r6r96 v89 r32r192 v120 <f+6&f+192r24r64a12&a192&
'F3 o5 a12&a64r48 v83 <<b48r192 v89 b8&b48r16. v108 >>a96r16. v114 b64r12r192 v101 <e8&e48a12&a32r192 v76 e96r16.. v108 >b48 r16r96<e8&e96 v114 >>b16r24r64<a64r6 v95 <<f+8&f+48 v89 >d32r16. v114 >>g+12&g+64r192e48r16.
'F3 r64 v120 o6 a6&a16&a64r6r16r64 v101 <<e8&e12&e64r48 v95 >a32.r6r192 v108 <e32& e8&e64&e96r4r32. v101 <d8&d48r12 v108 >d+12r192 v95 d+12r24r64 v120 >>g+16.&
'F3 o6 g+32.r12r64 v108 <a32r12b64r12r64 v101 <e8&e12&e64r64r96>a64r12r64 v89 <a48r16r64 v108 e8&e32&e192& e64&e96r16r192>>a96r8r12 v114 f+12&f+32r192 v108 b48r12r192<<e16&e24r192e64r8 v120 >a8&a12&
'F3 o5 a64&a96r3r32 v83 <a48r12r192a64&a96r12r64a64&a96r16. v95 >>f16&f192r32r48 v89 <<b64&b96r12b64&b96& b192r12r192 v95 >>f32r8r12 v89 <<a48r12a32r12 v83 >c+64r6r16c+48r12r64 v76 f+24r24
'F3 r32r192 v89 o4 g+48r6r32. v76 >f+32r16. v101 >f+32.r16r192 v83 <<a48r12r64 v101 >>e16r24r64 v83 <c+48r12r64c+32r12r192e96& e48r12 v76 c192r16.. v64 c24r12r192 v76 f+192r16r24 v101 >d+24r16. v76 <<a+16r3r96
'F3 r6r16o4 a64&a96r12r192>c+64&c+96r12r64<a32r8r48 v101 >>f+24r64 v89 <<b64&b96r12r192 v101 >>c+32.r16r192 v95 <<b64&b96r24 r6 v83 a48r12r192 v76 >c+48r12f+192r96 v101 >a32.r8. v89 <<g+48r12r64g+48r12r64 v83 g+48r16..
'F3 r16.. v101 o6 a32.r16r96f+32.r16r96 v83 <c+48r8r64r96 v101 >f+24r64 v83 <e64&e96r16. v76 e24r12 v83 e64&e96r12r64 v51 c32&c48& c96r24 v89 f+32r12r192 v83 f+32r16r96 v76 d+24&d+64r16r64 v83 e8&e12&e64r3r32
'F3 r48 v76 o5 e32r12r192e32r12r192e24r8r96 v108 >g+12&g+192r8r64d32&d48r192 v83 <<b16r6r192 v101 >>c+32r96 r16r96 v76 <e24r16 v83 c+32r8r12r64 v76 <g+48r16.. v101 >>e32&e48r16 v83 <d48r8.. v76 e64&e96r24r64
'F3 r32.o5 e64r16. v83 e32r8r48 v108 >g+12r12 v114 e16&e64r32r48 v76 <e64&e96r3r96 r2r3r192 v83 <a48r16. v101 >>f+32.
'F3 r16r64 v83 o4 a48r8.. v89 b64&b96r16. v101 >>c+24r16r96 v95 f32r6r32 v89 <<a64&a96r16.>c+64&c+96r16r96 r64 v83 c+48r8r32r192 v101 >>c16&c24&c64r192 v108 c32.r96 v95 <<<g64r16. v101 f+64r6r192>>>c+16 v89 <<<f+48r16r24 v83 b64&b96r12b64&b96
'F3 r8r48 v101 o7 c+4&c+24r6r32.c+8r16r192<f+24 v83 <<g+32r12 r48f+6&f+16&f+192r3r32.>c+32r16r24 v76 e32r16r192e64&e96r16r24
'F3 r32r48 v108 o6 g+12r12r192 v76 <<b48r32 v108 >>d24&d64r96 v83 <d64&d96r6r32.e32r12e24r16 v89 c+48r6r96 r24r64 v76 <g+64r12r32 v101 >>e24&e64r16 v83 <<g+48r12r64 v64 r12r32 v76 >e64&e96r16.e64r16. v83 e48r8r32 v108 >g+32&g+48&
'F3 o6 g+32r16. v83 <<b12&b64r64r96>e48r2r6r16 r4..r64 v95 >a32&a192r12 v76 <c+48r16. v101 >g+24&g+64r8.r192 v76 <c+48r24
'F3 r32. v101 o6 c+32.r16r192 v83 <c+192r6r16r192 v89 <a48r16.>c+64&c+96r12 v101 >a32&a48r8r192>c32.r96 v108 c+32&c+48r16r96 v95 <<<g96& g96r12>c+64r6 v108 >>c+24&c+64r96 v95 <<<b48r12r64 v83 b32r12r192 v108 >>>d32&d192r16r64d6&d16r16r96
'F3 r32r48 v89 o4 g+64&g+96r8r96 v108 >>b8&b32&b192r12f+32&f+192r192 v95 <<b48r12r64 v114 >>f+8&f+12r6r192 r16r24r64 v101 <<e6&e16&e64r8 v89 a64&a96r16r64 v108 e6&e64r8r12r64
'F3 r16r64 v114 o6 f+8&f+64r16r24 v120 a8r16r24g+6&g+192r16r64 v108 <a64&a96r16r64 v114 >b48r16r96 r48 v101 <<e8&e64&e96r8r12r64 v89 a32&a48r24r64 v95 e8r3 v114 >>f+32&f+192&
'F3 o6 f+16r48 v108 b64r32r192 v95 r24r64 v120 <g+12&g+64r48 v114 >e64r16r24 v120 <a6&a16&a64r8r12r32 v101 <e12& e8&e64&e96r8r64 v89 a48r12 v108 e6&e96r16r64 v101 >>a64r8r12 v114 <f+8&
'F3 o5 f+32.r16 v120 >a6r32r192 v95 <<<b6&b96r16. v114 >>>a64r16.. v108 <b48r12r192<e6&e64& e32.r8r64r96 v83 a32&a192r16r192 v101 e8.&e192r32. v108 >>a48r8.r192 v95 <<<a16&a24&a64r8
'F3 v114 o6 g+16.r48 v108 e64r16.. v120 <a8&a12&a32r3r8r64 v101 >d32.& d192r16 v83 <e48r12r64 v76 <a16&a24r8r96>e48r12e24r12 v95 >b32.r64 v101 a32.r96 v76 <c48r8r64 v101 >a32&a48r96
'F3 v83 o5 c48r8.. v95 e16..r192 v89 e16&e24r192 v83 e8&e32r12r192 v76 <e32.r16r96 v95 >>e64r16. v76 <<e32&e192r64r96 r32. v101 e16&e24r48 v83 e32r12 v89 b48r12r64b48r12 v101 e8&e64&e96r12 v83 e192 v95 >>e64r12r64d+64r16r24r64
'F3 r2r6r32. v101 o6 d24&d64r32r48<b32r12r192 v64 c24&c64& c24r8r64e48r12r64e32r16r64 v76 c192r12r32e64&e96r8 v108 >a32&a48r48 v64 <e64&e96r16r96 v95 <a8&a48&
'F3 o4 a8&a12r16.. v101 e32r16. v83 e32.r16r64 v89 >>e96r12r192<<b32r12 v101 e32r12r192 v83 e32.r32r48 r32b64r12r192 v76 e64&e96r16r64 v95 e64&e96r12r64 v89 b32&b192r12 v95 >>e64r16r24d+64r3r32.
'F3 r6r32. v108 o6 e64&e96r16. v114 e16r4r64r96 v101 <<g6&g16r12r64 r32r192 v76 >b32r12 v89 >e48r16. v83 <c48r3 v89 b8&b64r8r12r32
'F3 r12r64 v114 o6 c16&c24&c64 v120 e16&e64r4r64 v108 <g+6&g+32r8r12r32 r32 v89 >c48r16. v95 e48r3 v89 <g+16&g+24&g+64r3r32.
'F3 r6r32 v76 o5 e48r16. v95 b48r16. v64 c16.r8r48 v101 >f32.r16r192 v76 <e32&e192r16r64 v95 >b32.r96 v101 a24r192 r64 v83 <e64&e96r16r96 v114 >b16&b96r32 v76 <e48r12r64 v95 <f3&f8r8r64 v114 >>b64&b96r32r192
'F3 r6r96 v76 o4 f32r8r12e32r6r32 v83 f48r16r24a32r12 v89 e12&e32 r192 v83 g+48r8.r64 v101 >a16.r3r16r192 v114 >e12&e32r192 v95 <c16r16.
'F3 r16r96 v89 o5 e32r12 v101 <g8&g12r8r64r96 v76 >b64r16r24 v89 >e64r12r64 v83 <c64&c96r8.r192 r8r96 v95 >d8&d64&d96r4r16r192 v108 c12&c32 v114 c12&c192r8r64 v108 d32r48
'F3 r16o5 g+16&g+24r96 v89 g+64&g+96r3r192 v95 >c48r12r64c64r4r16r96 r64<b16&b24r2r16r24 v76 e32&e192r16r96 v101 b32r12 v95 >e48r32
'F3 r16 v83 o5 e48r12r64 v101 >f32&f48r24r64 v76 <e24r16r96 v101 >b24&b64r192a24r96 v83 <c48r12 v89 <a16&a64r32r192 v76 >e48r6r32. v95 d+64&d+96& d+16&d+64r192 v120 >a8..r8r96 v83 <<a64&a96r16. v76 e32.r16r64f64r12r64 v83 >c192r12r32 v76 <e48r16
'F3 r4r32r192 v83 o4 e64r12r192 v89 e16..r96e48r16r96 v83 e64r8 v108 >a6&a16&a192r48 r6r192 v89 <e4&e96r8r12r64 v101 e8r96a16&a24r16r24
'F3 r8 v89 o3 g+8&g+12r16r96 v101 >>>a16..r192 v95 <<<e6&e32r4r64r96 v101 >c+192& c+4&c+32r6r32 v89 c+4&c+64&c+96r8r12 v95 <a32&a192&
'F3 o3 a8r96 v101 r24r64 v114 >>g+6&g+32r16a6&a16r6 v108 >b8&b64&b96& b8&b32r8.. v101 <<e8r192a16&a24r4r192 v83 d16r192 v95 d16&d192&
'F3 o4 d16&d96r32r48 v101 >>a16&a24r192 v95 <<<e8..r4r192>c+4&c+24 r6r32 v89 c+4&c+48r6r96 v101 <d6 v89 >d64&d96r16r192 v114 >g+16.&
'F3 o5 g+16&g+24r24r64 v101 <c+3&c+8&c+96r192 v95 c+3&c+32& c+32r192a24&a64r192a32. v114 >>>c+4&c+6&c+192r32r48 v95 <<<e3&e32.&
'F3 o4 e16&e96r48 v114 >>>d3&d8&d96r192 v101 <a16&a192r32r48 v108 a12&a32 v114 e16&e24r96 v120 e12& e192r32r192 v114 b3&b64r192 v95 <<e16..r96 v101 >>c+3&c+8&c+96r192c+96&
'F3 o6 c+3&c+8&c+64&c+96r24<<e3&e8&e64 r192 v114 >>>d2&d3&d8&d64r64c+192&
'F3 o7 c+16..r192 v120 <e12&e32 v114 g+12&g+32r96 v108 >c+16&c+24r3r16. v76 <<<e32r12 r4r6r64 v101 >>>c+4..&c+64r12r32
'F3 r2.r32r48 v108 o7 c+48r16r24c+64r24r64 r24r64 v101 c+64r12r64 v108 c+48r6r16r192 v95 <<<b8&b12&b32r96 v101 b8.&b192r64 v114 >>a12&a32&
'F3 o6 a3&a16..r192>c+2&c+24r192 v108 c+192& c+16..r192 v101 c+12&c+64r192 v108 c+16&c+24r96c+16&c+64r96 v114 d2&d16&d64&
'F3 o7 d4.&d32r48<g+12&g+32r96 v108 >c+12&c+32 v114 <e12&e32r192 v108 >c+16&c+24&c+64r48 v114 <a16&a96& a3&a32.r24 v108 <<a16&a24&a64r192 v101 a16.. v83 e8&e12&e32r48 v114 >a12&
'F3 o5 a4&a16&a64r64r96 v89 <c+8&c+12&c+32 v95 c+4&c+96r32r192 v120 >a16..& a64r6 v108 <c+8&c+96r8r32r192e4.&e96r1r1r1r1r1r1r1..r32r48

'F4 @1 v89 r1 r2r8r12r32o5 e16&e24r192 v114 o6 a8&a64&a96&
'F4 o6 a32&a48r96 v108 a32&a192r16.. v83 <<e24r16r96 v89 >>e96r8.r64 v114 b64&b96r16r24 v89 <<b24r16r96 v95 >>e96r8r12 r1
'F4 r3r16. v76 o4 b192r2r16r192 r3r8 v95 >c12&c32 v89 e16.r96 v108 >>c16.r8r64r96 v83 <<<e32&e192r24
'F4 r4.r64 v76 o4 e32.r6r96 v89 b24r8.r64 v83 >e48r16r24r64 r1
'F4 r8r48 v114 o5 b6&b16r2r8 r2r8.r192 v89 <<a24r4r64
'F4 r8r32 v95 o5 e48r2.r16r96 r1
'F4 r2r8r12 v76 o4 a32r8r12 v95 a32&a48& a24&a64r192a16..r192 v83 f12&f32r16r24r64 v95 a48r2r16r192
'F4 r3r8r32 v83 o4 e32&e192r3r8r64 r2r6 v114 >b6&b32.r16r24r64
'F4 r2r8 v95 o5 b8&b64&b96r8r12r64 r8r12r64 v108 >c12r3r32. v95 <e64&e96r4r32r192
'F4 r1 r1
'F4 r32r192 v76 o4 a32&a192r4r6r192 v95 >d+16..<a12&a32 v120 >>b12&b32r8 v83 r24 r1
'F4 r48o4 e48r2r6r32 v120 >>c+6&c+16&c+64r64 r6r32. v108 <<a8r192 v114 >b16&b96r4r48 v101 <d16.r192d16&d192r16r96 v89 >>f+16&f+96&
'F4 o6 f+12&f+64r32. v120 g+8&g+48r4r16r96>c+6&c+16r64 v114 <a64r8 r16. v108 <<a12&a32r192>b24&b64r24r64>a64r8.r64 v114 f+12&f+64r64<b64r16r24 v108 <e16.r8
'F4 r64 v120 o5 a6&a16&a64r6r16r64>c+6&c+16&c+192r6r16r64>c+64& c+8&c+64&c+96r4r32. v95 <<<<a8&a48r12r192 v120 >>>a6 v101 <<<<e192r24r64 v120 >>>g+12&g+192&
'F4 o5 g+32&g+48r16. v89 <e48r8.. v120 >>>c+6&c+32.r4r96 v108 <<<a12&a32r192 v114 >>b48& b48r4r32r48 v95 <<d16.r96 v101 d32r12 v120 >>g+8r3
'F4 r2.r24r64 v101 o6 f+24r8r64r96 r2r16 v83 f+32&f+48r6r64 v89 <<g+64&g+96r16.g+32r32r48
'F4 r4r48 v83 o4 a64&a96r8..>c+64&c+96r8r48 v101 >f+32&f+48r96 v83 <e48r12r64 v76 <a+64&a+96r16r24 r16r24 v108 >>d+8&d+192r8r12r64 v64 <<a+192r8r192 v83 >e4&e192r8r64r96
'F4 r1 r1
'F4 r2r12 v76 o4 g+32&g+192r3r32r192 v101 >>e96& e24r2r3r8
'F4 r8r64 v76 o5 a16&a192r4r32r192 v83 d64&d96r8.r64 v76 d64&d96r8r12 v83 e32r96 r6r64e64&e96r8r12r64 v76 <e64&e96r8.. v83 g+48r4r32r48
'F4 r4.r96o4 b32r8r48 v101 >>d32&d48r64 v76 <<b64&b96r3r96 r1
'F4 r16r64o5 c+64&c+96r2r3r16 r4 v95 <g+16&g+96r4r6 v89 b48r8r12r32
'F4 r6r32 v101 o6 b6&b32.r192b16r8.r192 v89 <<f+16&f+24r16r24r64 v101 >>g+48r12 r1
'F4 r16r24 v108 o6 f+32&f+48r2r32. v76 <<a24&a64r8r12r32 r16b48r16r24b32r4r16r96 v101 >>c+32&c+192r4r6r192
'F4 r64 v83 o5 e64&e96r8r64 v101 >d32&d192r2.r32 r2r8. v83 <<a48r4r24
'F4 r2r8r192o4 a+192r3r32 r16. v95 f+64r6r16r192 v89 f+48r4r6r32g+12&g+32r16r96
'F4 r4r64 v101 o7 c+16&c+24r8r192<g+24r3r8 r8 v120 c+8&c+12&c+32r6r16r64 v108 <<a6r8r12r64
'F4 r16r64 v95 o3 d16.r96>c+192 v101 d32&d192r12r64 v120 >a16&a24&a64r192b96r16.g+6&g+192r8. v114 b96r16r64 r32 v120 >>c+8..r4r96<c+6&c+96r4r32 v95 <<<d32&
'F4 o3 d16&d192r8 v108 >e12&e32r2r16r24r64 v120 >>>c+16&c+96& c+8&c+64&c+96r4r192 v101 <<<a6r4r32r48 v95 <a8&
'F4 o3 a32.r6r64 v114 >>>b32.r32r48 v108 <<e8r192e64&e96r3r96 v120 >>>c+6&c+192& c+32.r4r64c+6&c+64r4r64r96 v101 <<<d16&d24&d64r16..
'F4 v108 o4 e16&e24r2r3r16 r8.r192 v76 b192r2.r32r48
'F4 r8r12r32 v89 o5 c16&c24r8. v101 >g16r16r24r64 v89 <<b32&b192r8.b32r32 r32. v114 >>b16..r64 v89 <<b32&b192r4r24r64 v114 >>b8&b64r16. v89 <<b192r6r16r64
'F4 r1 r6r64 v64 o4 a32&a192r2.r64 v95 >c64&
'F4 o5 c12 v114 >a8&a12r8r32 v89 <<b32r16. v76 e64&e96r16r96 v101 >>a64&a96r8.r64f+64r12 r32 v76 <e24r16 v89 <b32r6r32 v76 e32r2r16r24
'F4 r2.r24 v101 o5 g16..r12r64 r1
'F4 r8.. v108 o6 c16r4.r32 v95 <e16&e96r8r12r32 r1
'F4 r6r32o6 d32&d48r2. r3r8r192 v89 <<a16..r192 v76 >d+16..r96 v120 >b16&b24r6r32
'F4 r1 v101 o5 b64&b96r2.r16r192 v114 >e16r16.
'F4 r4r24r64 v101 o5 g12&g192r2r16r24 r8r96 v89 b8&b48r4.. v114 >e12&e192r8.r192
'F4 r6r64 v89 o5 e48r2.r32. r1
'F4 r2r48 v83 o5 e64&e96r8.r192 v76 <e32&e192r6r32 v89 a64&a96& a12 v83 >d+16&d+24r192 v89 d+16&d+24r8r48 v76 <e32r2r64r96
'F4 r2r96 v101 o5 b48r3r8r96 r8.r64 v108 <a16&a24&a64r192 v95 a16..r6r16r192 v114 >>c+8..r16..
'F4 r8r64r96 v83 o4 d24&d64r96 v89 d12&d32r8 v114 >b24&b64r96 v89 <<b16&b192r24 v95 >>>g+12r4r32 r48 v101 <<e4r192 v83 e32&e192r6r32 v101 e6&e16&e64r8r12r64d48&
'F4 o4 d8r8. v108 e16&e96r2r64 v89 e12&e64& e8&e64&e96r6r16r192 v114 >>c+8..r4r32r192 v108 f+16..&
'F4 o6 f+32r8r48 v114 <b24&b64r24r64g+8&g+48r4r32. v101 <e24&e64 v114 >>>c+8&c+12 r8r12r64 v101 <<<e16&e24&e64r192 v114 >b16&b24&b64r6r32. v95 <<a6r8r64r96
'F4 r32 v101 o4 e16&e96r24r64e4&e192r192 v120 >>>c+8&c+64&c+96 v108 <c+16.r192 v114 a4&a16&a64& a8&a64r192a3&a16.r32.>d8&d12&d64r96d8&d48&
'F4 o7 d16.r192<a4&a6&a192r32r48 v108 e16r32r48e12&e32r192>c+16.. v114 d12& d192r32r192 v120 <g+3&g+8&g+192r32r192 v108 e3&e8&
'F4 o6 e96r192e3&e8&e192r24r64>d8&d12&d64r192d6&d16&d192 r192<<<d16&d24&d64r96 v101 d16&d24&d64 v114 d12&d64r96 v101 d16..r32 v89 e4&e6&e16&e64&
'F4 o4 e16..r192 v114 >>g+12&g+32r192e16..r96 v108 g+12&g+64r2r32. r1
'F4 r1 r2r32r48o4 e4&e6&e32&
'F4 o4 e4&e6&e192 v101 >>e2&e16&e64& e4.r32. v114 f+16&f+24&f+64r192 v89 d3&d64&d96r64 v114 e16&e64&
'F4 o6 e4&e6r96e8e12&e32 v108 g+8&g+12&g+32r32<<a16& a16&a192r192 v95 a16&a24r192 v101 a16.. v83 e16&e24r64r96 v120 >a3&a8&a96r64r96>a12&
'F4 o6 a4&a16&a64r16 v108 <<a16&a24&a64r192 v95 a16&a192r32. v108 a16&a24&a64a16&a24r8r48 r6r64>>e8&e96r8r32r192 v120 a4.&a96r1r1r1r1r1r1r1..r32r48

'F5 @1 v95 r1 r2r3r64o5 e12&e64r96 v108 o7 c24&
'F5 o7 c12r8 v89 <<<b48r2.r48 r1
'F5 r1 r2r16 v114 o6 a6&a32r6 v89 <<b32&b192r32r192
'F5 r2r3r64r96 v76 o4 e32&e192r16r24 r1
'F5 r1 r1
'F5 r1 r1
'F5 r2r6r32.o5 e64&e96r4r96 r16 v89 d+6&d+16&d+192r2r8.r64
'F5 r2 v101 o5 b64&b96r3r8r64 r2.r32.g12r16r24r64
'F5 r1 r1
'F5 r1 r1
'F5 r2r16r24 v120 o6 a6&a16r6 r1
'F5 r2r8r12r32o7 c+6&c+16&c+64r64 r8..c+6&c+32r4.r96 v114 <<g+32&g+48r8r48
'F5 r64r96 v120 o5 b16&b96r32.g+8&g+48r4r16r96>c+6&c+16r64 v101 <a64&a96r12r32 r16. v120 >c+6&c+96r4r64r96 v114 <f+16&f+24r64 v101 >b64&b96r12r192 v120 <g+12&g+64r16r24r64
'F5 r2r96o7 c+8..r4r192 v108 <<<a64& a16.r96 v101 a32.r4r24r64 v95 d12r192 v89 d32.r12r192 v120 >a6r8r64r96
'F5 r64r96 v114 o6 e64&e96r3 v120 c+6&c+16r6r16r64>c+8&c+64& c+48r2r64r96<<g+16&g+24&g+64r3
'F5 r1 r1
'F5 r4r64r96 v95 o6 a16&a192r2r8r32 r8.. v83 <f+32r2.
'F5 r1 r1
'F5 r1 r1
'F5 r1 r1
'F5 r1 r1
'F5 r1 r4o5 c+16&c+96r2r6r96
'F5 r8.r64 v89 o4 b12&b32r192 v95 b12&b64r192 v83 g+16&g+64r6 v89 a16&a24r8r12r64 r1
'F5 r8r192 v64 o5 e192r2r3r32 r16 v76 e192r2.r6r64
'F5 r48o4 b32r2.r6r32 r1
'F5 r1 r2.r16 v101 o6 b16&b24r12
'F5 r4r32 v89 o4 a16.r2r8 r8 v120 >>>c+8&c+12&c+32r6r16r64 v114 c+8&c+32&c+192r6r16
'F5 r12 v101 o4 d12&d64 v83 <d24r12r64 v95 f+16&f+24&f+64r6r16r192 v101 >e32.r4r64r96 r32 v120 >>c+8..r4r96>c+6&c+96r4r16
'F5 r6r32 v101 o3 e16..r2r16r24r64 v120 >>>c+16&c+96& c+8&c+64&c+96r4r96>c+8&c+32&c+192r4r32r48 v114 <f+8&
'F5 o6 f+32.r6r64<b32.r16r96 v120 g+8&g+96r3r96 v108 <a8r192 v89 a24& a32&a48r4r96 v120 >>c+6&c+64r4r64r96 v114 f+16..r16r24r64
'F5 o5 g+16.r2..r32 r8.r192 v64 c16..r2r6r32
'F5 r3r96 v114 o6 a8&a12r48b32r3r16 r2r8r96 v101 a48r3r96
'F5 r1 r1
'F5 r16. v95 o5 e16.r96 v114 >>c12&c192r2r16r24r64 v89 <<<b24r32r48 r3r32 v76 >e48r2r12r32
'F5 r1 r1
'F5 r1 r1
'F5 r1 r2r12 v89 o4 a16&a24r96 v83 >d+16&d+24r6r32
'F5 r1 r1
'F5 r1 r1
'F5 r1 r1
'F5 r1 r12 v95 o4 a12&a32 v120 >>b16&b24r2r6r32
'F5 r1 r8.r64 v114 o6 c+6&c+16&c+192r8r12r32 v101 <<a16..r192 v114 >b12&b64r16..
'F5 r6r96 v108 o6 f+8&f+64r3r32. v101 e32.r4r192 r32r192 v108 <<a8&a192 v95 a16&a24r192 v101 a32&a192r8.r64 v114 >>c+6&c+16&c+192r6r16r64 v101 f+192&
'F5 o6 f+16&f+24&f+64r2.r32. v108 <<a12& a24 v95 a12&a32r6r16r192 v101 a16..r192 v114 >b12&b64r3r96 v95 <g+32&g+48&
'F5 o4 g+32r3r32. v101 >>e32.r4r24 v108 <<a8&a192r192 v95 a16&a24 v101 a96& a64&a96r8.r64 v114 >>c+8&c+12&c+32r6r16 v101 <<d12&d32r192 v89 <d32.r8r96
'F5 r8r32r192 v114 o6 a2&a192r192c+4&c+16&c+64& c+12&c+64r192 v101 c+24 v114 <<a8&a96r3r64r96 v83 >>a3&a64&a96&
'F5 o6 a16&a96r64r96 v120 f+4&f+6&f+192r32r48 v95 >c+16r32r48 v108 c+12&c+32r192 v114 d16&d24r192 v83 <<<d96r16r96 r24 v114 >>e3&e96r24r64 v101 <<<a8&a12&a32r4r32.a48&
'F5 o3 a32&a192 v95 a3&a16..r16 v89 >a12&a32r96a16.r96 v101 a12&a192 v89 a8&a192r96 r96 v120 >>f+3&f+8&f+192r32 v114 e3&e8&e64&e96r192g+192&
'F5 o6 g+16..r192>c+12&c+32r192 v108 c+12&c+32r192 v114 <e12&e64r2r32. r1
'F5 r1 r2r6o7 e8.&e64r64c+12&c+32&
'F5 o7 c+4..r3r8r32 v89 <<<e16&e96& e3&e16&e64r8r64 v95 d16..r192 v108 d12&d32r96 v101 d12&d32r48 v114 >>a16&a96&
'F5 o6 a4.&a32r48b8b12&b32r192 v108 b6&b16&b192r16. r4r24 v89 <c+8&c+48r3r96 v114 >e16..r16..
'F5 r32r192 v101 o4 a16.. v95 >>>c+12&c+32r96 v114 c+24&c+64r16r192<<a8.r32. v120 >a8&a12&a64r8r48 r6r64 v114 c+8&c+96r8r32r192c+4.&c+96r1r1r1r1r1r1r1..r32r48

'F6 @1 v95 r1 r1
'F6 r32r48o6 g48r2r3r16. r1
'F6 r1 r1
'F6 r1 r1
'F6 r1 r1
'F6 r1 r1
'F6 r1 r6r96 v89 o4 a12&a32r2r8r12
'F6 r1 r1
'F6 r1 r1
'F6 r1 r1
'F6 r2r8.. v95 o4 a12&a32r6 r1
'F6 r2r8r12r32 v108 o4 a8&a96r192 v83 >a192r16. v114 >a64r192 r8.. v120 c+6&c+32r4.r96 v114 g+32&g+48r8r48
'F6 r64r96o6 b16&b96r32r48<<e16..r192 v101 e64&e96r4r16r96 v108 a8 v83 e12&e32r8r48 r16. v120 >>>c+6&c+96r2r6r16
'F6 r2r96 v108 o4 a8r192 v89 a12&a192r4r192 v120 >>c+64& c+8&c+32r3r16r64 v114 <g+64&g+96r8.r64 v120 b32&b48r8r64r96
'F6 r4.r96 v108 o4 a8r96 v95 a12&a64r8r12r32 v120 >>c+8&c+64& c+48r2r8r64 v108 e64&e96r4r16
'F6 r1 r1
'F6 r1 r1
'F6 r1 r1
'F6 r1 r1
'F6 r1 r1
'F6 r1 r1
'F6 r1 r1
'F6 r8.r64 v95 o4 g+16..r96g+16&g+24r4r24 v101 >>f+24&f+64r8r12r64 r1
'F6 r1 r1
'F6 r1 r1
'F6 r1 r2.r16r192 v89 o4 b16.r12r192
'F6 r4r32o4 f+16.r2r8 r8 v108 a16&a24&a64r96 v95 a16..r6r16r64 v120 >>c+6&c+192r8..
'F6 r16.. v64 o6 g8&g64r6 v101 <<<e4&e16&e96r4r96 r32r192 v108 >>>a6&a16&a192r8r12r32 v101 a6&a96r4r16
'F6 r2r3r16.o6 a16&a96& a8&a32r4r192 v120 c+8&c+32&c+192r4r16 v101 <<d12&d32&
'F6 o4 d32.r6r32. v64 r8r12 v114 >>e48r3r192 v120 c+6&c+192& c+32.r4r64 v108 <<a16&a24&a64r3r192 v114 >f+16&f+24r8
'F6 r1 r6r32 v64 o5 e16r2r8r12r32
'F6 r1 r1
'F6 r1 r1
'F6 r1 r1
'F6 r1 r1
'F6 r1 r1
'F6 r1 r2r6r32 v89 o4 a12&a64r8.r64
'F6 r1 r1
'F6 r1 r1
'F6 r1 r1
'F6 r1 r6r32 v95 o4 a12&a64r2r8.r64
'F6 r1 r4 v114 o7 c+6&c+64r4r24 v108 c+6r16..
'F6 r6r16 v89 o4 g+12&g+192r2r6r64 r32r192 v114 >>c+4r6r16 v108 <<a12&a32r192 v114 >b16&b24&b64r6r16r64
'F6 r12o5 b32&b192r2.r32r48>c+16&c+64& c+8&c+64&c+96r4r32r192 v101 >c+6r3r96 v114 <<g+32&g+48&
'F6 o5 g+32r2r8..>c+4 r6r16 v108 <<a12&a32r96 v95 a16&a24r192 v114 >a32&a48r8.r192 v101 >f+8r6
'F6 r8r32r192o4 a8&a192r96a12&a32r192 v120 >>c+8&c+64&c+96 v108 >c+12&c+192r96 v114 c+4&c+16&c+64& c+8&c+96r96 v108 <<<e4..r16 v89 a16&a24r192 v83 a12&a64 v95 a8&a48&
'F6 o4 a16&a96r2r48 v83 c+24r4r32r192 v108 >>>c+16&c+64& c+96r32r192 v101 <<<e16&e24&e64r8.. v114 >>>e8r32r192<a4..&a64&
'F6 o6 a24a4&a6&a64r16r96 v89 a4..&a64 r8r96<<<d3&d192r32 v114 >>>a3&a8&a96r48b192&
'F6 o6 b3&b64r2r8r64r96 r1
'F6 r1 r2.r16r96 v101 o3 a6&a96&
'F6 o3 a3&a32r192 v108 a2&a64r32r48>>>>d16& d8&d32&d192 v114 d4&d192r8r96 v101 <f+3&f+48r48 v114 >c+16&c+96&
'F6 o7 c+4&c+6r4..r64 v95 <<<<a8&a192& a3&a32r192a4&a6&a16&a64r96>c+8&
'F6 o4 c+3&c+96r32r48 v114 >>a8.r32r48 v108 <a8..r8r48 r6r64<e8&e96r8r32r192 v114 >>e4.&e96r1r1r1r1r1r1r1..r32r48

'F6_ @1 v108 r1 r1
'F6_ r1 r1
'F6_ r1 r1
'F6_ r1 r1
'F6_ r1 r1
'F6_ r1 r1
'F6_ r1 r1
'F6_ r1 r1
'F6_ r1 r1
'F6_ r1 r1
'F6_ r1 r1
'F6_ r2.r6r16o5 a48 r2r3r96 v102 o3 d+8&d+32
'F6_ r1 r6r32. v108 o4 a16&a192r2r8..
'F6_ r2r3r8r64r96o6 a64& a6r3r16r192 v121 g+64&g+96r8.r64b32&b48r8r64r96
'F6_ r2.r6r16o5 b48& b48r2.r6r16
'F6_ r1 r1
'F6_ r1 r1
'F6_ r1 r1
'F6_ r1 r1
'F6_ r1 r1
'F6_ r1 r1
'F6_ r1 r1
'F6_ r4r192 v102 o6 a16..r2r8r96 r1
'F6_ r1 r1
'F6_ r1 r1
'F6_ r1 r2.. v108 o6 a32.r16r64
'F6_ r4r16r64o6 f+32.r2r8 r2r6r16 v115 b24r6r16
'F6_ r8.r64 v127 o5 g+64r8r12 v102 <<g+4&g+24r4r32 r32r192 v115 >a8&a192r192 v90 >>e12&e192r4r192 v115 <<a16&a24&a64r3r32
'F6_ r2.r6r64o4 a16&a192& a24&a64r192 v102 a12&a192r3r32. v121 >>b24r4r6r192g+192&
'F6_ o6 g+32.r2...r64 r3r16.b16&b192r2r192
'F6_ r1 r1
'F6_ r1 r1
'F6_ r1 r1
'F6_ r1 r1
'F6_ r1 r1
'F6_ r1 r1
'F6_ r1 r1
'F6_ r1 r1
'F6_ r1 r1
'F6_ r1 r1
'F6_ r1 r1
'F6_ r1 r2.r24 v102 o4 e12&e64r16..
'F6_ r6r16r192 v121 o5 g+12r2r6r64 r16r64>>c+8&c+12r4r32r192 v108 c+6&c+64r6r16r64
'F6_ r2r3r8r96 v102 r32 r2r192o4 e12&e64r3r16
'F6_ v115 o6 g+32&g+192r2.r96 v96 <<e8.&e192 v90 e96& e32r4r96 v108 >>>c+6&c+96r4r16r64 v121 <<b32&b192r6
'F6_ r4r6r192o4 a16&a24&a64r192 v96 a12&a64r192 v102 a8&a64r96a16&a24r96 v108 a12& a32r96 v90 c+32&c+48r96 v102 e32r2r32. v115 >>>c+12&c+32c+12&c+64r192c+12&c+64&
'F6_ o7 c+64r192 v96 c+32&c+48r2r48 v90 <<<e24r3r32 r4r6r16 v102 c+2&c+96r192c+192&
'F6_ o4 c+2r16. v115 >>>c+16..r192 v108 c+12&c+64r192 v115 c+16&c+24r192 v108 c+16&c+192r96 r2r192 v121 c+3&c+8&c+64&c+96r96
'F6_ r1 r1
'F6_ r1 r2.r16r96 v102 o6 c+6&c+96&
'F6_ o6 c+3&c+32.r96c+2&c+12&c+64r96 r32r48 v115 b8..r96b8&b192r3r8r32 v83 <<c+12&c+64&
'F6_ o4 c+3&c+16&c+64r4r6r16 v108 c+16..& c+3&c+16r64r96 v127 >>a3&a8&a96r16..
'F6_ r8r48 v102 o4 a16&a24&a64r192 v115 >>c+24&c+64r8. v121 >c+16&c+192r6r192 v127 e16&e24r8r64 r6r64 v121 <<a8&a96r8r32r192a4.&a96r1r1r1r1r1r1r1..r32r48

'F5_ @1 v96 r1 r1
'F5_ r1 r1
'F5_ r1 r1
'F5_ r1 r1
'F5_ r1 r1
'F5_ r1 r1
'F5_ r1 r1
'F5_ r1 r1
'F5_ r1 r1
'F5_ r1 r1
'F5_ r1 r1
'F5_ r1 r1
'F5_ r1 r6r32.o4 e16&e192r2r8..
'F5_ r1 r16r24 v121 o5 b32&b48r2r3r96
'F5_ r1 r1
'F5_ r1 r1
'F5_ r1 r1
'F5_ r1 r1
'F5_ r1 r1
'F5_ r1 r1
'F5_ r1 r1
'F5_ r1 r1
'F5_ r4r32r48 v115 o6 g+16&g+24&g+64r2r16r64 r1
'F5_ r1 r1
'F5_ r1 r1
'F5_ r1 r1
'F5_ r1 r2r6r16 v121 o5 b24r6r16
'F5_ r1 r2r8r192o6 b24&b64r4r16
'F5_ r1 r2r32 v115 o5 b24r4r6r192 v121 g+192&
'F5_ o5 g+24r2r3r8 r3r16.b16&b192r2r192
'F5_ r1 r1
'F5_ r1 r1
'F5_ r1 r1
'F5_ r1 r1
'F5_ r1 r1
'F5_ r1 r1
'F5_ r1 r1
'F5_ r1 r1
'F5_ r1 r1
'F5_ r1 r1
'F5_ r1 r1
'F5_ r1 r2r3r96 v108 o6 b32.r16..
'F5_ r4r32r192 v115 o6 g+32&g+192r2r6r96 r2r8r96 v102 <<a16.. v121 >a64&a96r6r16
'F5_ r2r3r8r96o7 c+32& c+8&c+64&c+96r4.r32 v108 <b32.r3r16
'F5_ o3 d+192r192f+6&f+96r2.r16 r3r48 v96 >e12&e32r2r32
'F5_ r4r6r192o4 e16&e24&e64r96 v83 e12&e64r192 v108 e3&e96& e32r96 v83 e24&e64r192 v102 c+3&c+8&c+32r8r48 v115 >>b8&b12r96 v102 e24&
'F5_ o6 e12r2.r6 r2r24r64 v121 >c+3&c+16..&
'F5_ o7 c+24r192 v115 c+2&c+24r16<b6&b32. v102 e192r16.<<<d32&d192& d8&d96r4. v115 >a8&a96r3r48
'F5_ r1 r1
'F5_ r1 r2r3r48 v102 o4 c+8&c+48&
'F5_ o4 c+4.&c+96r192c+2&c+192r24r64 v90 a32.& a16r96 v102 a12r96 v115 a12r96 v108 a8&a64&a96r2r64r96a16&
'F5_ o4 a24&a64r192 v90 e3&e8&e64&e96r4..r64 r4r24 v102 a16&a24r4.r96a8..&
'F5_ o4 a32r3r8r64r96 v121 >>c+16&c+192r6r192e12&e64r8r48 r6r64 v108 <<<a8&a96r8r32r192a4.&a96r1r1r1r1r1r1r1..r32r48

'F4_ @1 v115 r1 r1
'F4_ r1 r1
'F4_ r1 r1
'F4_ r1 r1
'F4_ r1 r1
'F4_ r1 r1
'F4_ r1 r1
'F4_ r1 r1
'F4_ r1 r1
'F4_ r1 r1
'F4_ r1 r1
'F4_ r1 r1
'F4_ r1 r1
'F4_ r1 r1
'F4_ r1 r1
'F4_ r1 r1
'F4_ r1 r1
'F4_ r1 r1
'F4_ r1 r1
'F4_ r1 r1
'F4_ r1 r1
'F4_ r1 r1
'F4_ r1 r1
'F4_ r1 r1
'F4_ r1 r1
'F4_ r1 r1
'F4_ r1 r1
'F4_ r1 r2r8r192o5 b24&b64r4r16
'F4_ r1 r1
'F4_ v102 o3 d+16.r2..r32 r1
'F4_ r1 r1
'F4_ r1 r1
'F4_ r1 r1
'F4_ r1 r1
'F4_ r1 r1
'F4_ r1 r1
'F4_ r1 r1
'F4_ r1 r1
'F4_ r1 r1
'F4_ r1 r1
'F4_ r1 r1
'F4_ r1 r1
'F4_ r4r32r192 v108 o3 d+192r192f+16..r2r16. r2. v115 >a32&a48r6r32
'F4_ r1 r1
'F4_ r1 r3r8r192o4 a24&a64r4r6r16
'F4_ r2r6r192 v121 o6 e4&e16&e64& e8&e96 v108 e4.&e32r4r6 v121 b24&
'F4_ o6 b16&b96r2r3r16. r1
'F4_ r2r3r32 v115 o6 b16&b24&b64r64 r1
'F4_ r1 r1
'F4_ r1 r2r3r48 v108 o6 e8&e48&
'F4_ o6 e4&e6&e192r192 v115 <<e2r16r96 r3r32r192 v102 <d2&d32&d192r16.
'F4_ r3r16r192o3 e2&e96r12r192 r4r24r64 v90 >>>e16&e96r2r16r24r64
'F4_ r1 r1r1r1r1r1r1r1r1.r6

'F3_ @1 v102 r1 r1
'F3_ r1 r1
'F3_ r1 r1
'F3_ r1 r1
'F3_ r1 r1
'F3_ r1 r1
'F3_ r1 r1
'F3_ r1 r1
'F3_ r1 r1
'F3_ r1 r1
'F3_ r1 r1
'F3_ r1 r1
'F3_ r1 r1
'F3_ r1 r1
'F3_ r1 r1
'F3_ r1 r1
'F3_ r1 r1
'F3_ r1 r1
'F3_ r1 r1
'F3_ r1 r1
'F3_ r1 r1
'F3_ r1 r1
'F3_ r1 r1
'F3_ r1 r1
'F3_ r1 r1
'F3_ r1 r1
'F3_ r1 r1
'F3_ r1 r1
'F3_ r1 r1
'F3_ r1 r1
'F3_ r1 r1
'F3_ r1 r1
'F3_ r1 r1
'F3_ r1 r1
'F3_ r1 r1
'F3_ r1 r1
'F3_ r1 r1
'F3_ r1 r1
'F3_ r1 r1
'F3_ r1 r1
'F3_ r1 r1
'F3_ r1 r1
'F3_ r1 r1
'F3_ r1 r1
'F3_ r1 r1
'F3_ r1 r1
'F3_ r24o3 d12r2.. r1
'F3_ r2.r6r16 v96 r48 r1
'F3_ r1 r1
'F3_ r1 r2..r64 v121 o4 a16..&
'F3_ o4 a32&a48r2.r6r32 r1
'F3_ r1 r1
'F3_ r1 r1r1r1r1r1r1r1r1.r6

'F2_ @1 v102 r1 r1
'F2_ r1 r1
'F2_ r1 r1
'F2_ r1 r1
'F2_ r1 r1
'F2_ r1 r1
'F2_ r1 r1
'F2_ r1 r1
'F2_ r1 r1
'F2_ r1 r1
'F2_ r1 r1
'F2_ r1 r1
'F2_ r1 r1
'F2_ r1 r1
'F2_ r1 r1
'F2_ r1 r1
'F2_ r1 r1
'F2_ r1 r1
'F2_ r1 r1
'F2_ r1 r1
'F2_ r1 r1
'F2_ r1 r1
'F2_ r1 r1
'F2_ r1 r1
'F2_ r1 r1
'F2_ r1 r1
'F2_ r1 r1
'F2_ r1 r1
'F2_ r1 r1
'F2_ r1 r1
'F2_ r1 r1
'F2_ r1 r1
'F2_ r1 r1
'F2_ r1 r1
'F2_ r1 r1
'F2_ r1 r1
'F2_ r1 r1
'F2_ r1 r1
'F2_ r1 r1
'F2_ r1 r1
'F2_ r1 r1
'F2_ r1 r1
'F2_ r1 r1
'F2_ r1 r1
'F2_ r1 r1
'F2_ r1 r1
'F2_ r32r48o3 f+3&f+8&f+96r4r6r16 r1
'F2_ r1 r1
'F2_ r1 r1
'F2_ r1 r1
'F2_ r1 r1
'F2_ r1 r1
'F2_ r1 r1r1r1r1r1r1r1r1.r6

