'{
 ClockCount=192
}

'X1 T125 @1 v62 o5 b24r96 v56 o5 a32r64g+32&g+192r48a24r48>c48r12r32 v44 <c48r12r192c64&c96r32. v62 >c32&c192r96 v37 <c48r32 v56 >c32.r48 v44 <<a12&a64r64r96>e64r12c64&c96r24 v62 >e192& e32&e192r192 v44 <c48r24 v56 >e32&e48r192 v44 <<a16&a24r96 v69 >>g+32.r192 v62 a24&a64 v69 b16&b96r32r192g+16&g+192r32r48 v75 >c3&c192r192 v50 <<c24&
'X1 o5 c16r48 v69 >b64&b96r12r192a32r12 v50 <<b64&b96r12r192 v62 >>f+64r24r64g24r8 v69 f+64r12r192 v37 <<e32r12 v50 b64&b96r32. v56 >>g32 v75 b96& b48r16. v69 f+64r192 v25 <<e24r32r48 v69 >>g96r12r64 v50 <<b48r16r24r64 v44 e8&e12&e64r64r96 v62 >b32&b48r192a32&a192r64 v56 g+32r64a32&a48r48 v50 >c48r48
'X1 r16r64 v44 o5 c64r12r192c48r32. v62 >c32&c192r96<b64&b96r64r96 v56 >c32.r64 v62 e48r16.. v37 <e48r16. v62 >f32&f48e32.r192 v37 <e64&e96r24 v62 >e32&e48r96b24&b64a24r96 v69 g+32&g+48a24&a64r32.a24&a64 v44 <e64&e96r48 v69 >a16&a192 v56 <<a4..r192 v69 >>a32r12r32f+48r16
'X1 r32o6 g48r16. v56 f+48r32r48 v62 g32&g192r192 v69 b64&b96r12r64f+48 v25 <<b32r16 v50 b64&b96r12r192 v44 >e48r16 v62 >g32&g192r96 v75 b48r12r192f+64&f+96r12r192 v69 g48r96 r12 v50 <<b48r16.. v44 e8&e12&e32r96 v69 >>e48r16. v75 f48r16. v50 <<c32.r16r96 v81 >>g48r16. v75 a16&a192r192
'X1 r32 v69 o6 f32&f192r64 v62 e48r24 v75 d6&d16r64 v56 c64r12r64f64r16r24 v62 g64r192 v37 r12r64 v44 <c64r12r64 v50 <e64&e96r32 v62 >>g32.r64 v37 <e48 r48 v56 >e48r32.d8&d64&d96r12r64 v69 c48r12r64d48r16. v62 <<<a32&a48r16 v56 >a32.r16r192c24r48 v69 >>e24r192d64&d96r48 v62 c48r48
'X1 r32 v69 o5 b8&b48r12r192 v56 >c48r12r64 v62 <b64r12r64 v50 <<a32r16.>a48r16. v44 c64&c96r64r96 v62 >>e24r192d48r64r96c48r16r192 v44 <<e64&e96 r8.. v62 >b24r96 v56 a24r96g+32r48 v44 r16r96 v50 >c96r12r32 v44 <c64r16. v50 c48r32r192 v62 >c24r192 v44 <c48r32. v56 >c32.r192 v44 <<a16.&
'X1 o4 a192r64r96>e48r12r192c48r24 v62 >e32.r96d+32.r96 v56 e32.r64 v44 <<a12&a192r48 v69 >>g+24r192 v62 a16r32r48a32&a48r192 v50 <c48r64r96 v69 >a16&a96r12r32 v62 <d+24&d+64& d+32&d+48r192 v75 >a6&a16&a192>c32r12r192 v56 <<e48r12r64 v69 >a48r12r64g+48r12r192 v50 <<c24r12a32r12
'X1 o4 d32r16.b48r16r24 v69 >>c4&c32r192 v62 c32r96<b64&b96r48 v56 a64&a96r48b64&b96r64<<a6&a32.r32 v69 >>>e48r48 r12 v75 f64r16r24 v81 g64&g96r16. v56 <c32r12r192<e64&e96r64r96 v69 >>g24&g64 v44 <e64&e96r48 v62 >e48r32.f8&f64r16.. v56 e64&e96r24r64
'X1 r24 v50 o6 d96r16r24 v44 <<c64&c96r16. v56 >>g48r12r64 v44 <<e48r32 v62 >>g32.r192f64&f96r64r96 v56 e48r32r48 v44 <<g8&g32r12r192 v62 >>c48r12r64 v69 d96& d96r16. v62 <<<a8.r32. v56 >c32r64r96 v69 >>e32&e48d32r48 v62 c48r32. v56 <<e8&e32&e192r16r64>>c48r16r24 v50 d64r32r48
'X1 r24 v44 o3 a32r16.>a48r12r64 v37 c64&c96r32 v62 >>e32.r192 v56 d48r32c64&c96r24<g+8r8 v62 b32.r96a24r96 v56 g+64&g+96r64r96a32.r64 v50 >c96& c192r16.. v44 <c64r16.c64&c96r32 v62 >c32.r192 v37 <e64r24 v56 >c32.r64 v44 <<a16&a24r48>e48r12r64 v62 >f32.r192e32&e48r192 v37 <e32&e192r48 v56 >e32&e48 v44 <<a12&
'X1 o4 a96r48 v62 >>g+32.r192a24&a64r32r48a24&a64 v44 <e64&e96r64 v69 >a16&a96r192 v56 <<f3&f8&f192r16r24r64 v50 >e48r64r96 r16r192<d64&d96r16. v75 >>g+32&g+192r16r64 v50 <<c32r16. v69 >>e32r12 v56 <<d32r12 v62 >>d48r16r24 v69 c8..&
'X1 o6 c64&c96r64r96 v62 c32&c192r96<b64&b96r96 v56 a32&a192r48b64&b96r64r96<<a6&a16&a64r192 v69 >>>a64r16r24 v75 b32r48 v50 <<c+4&c+16r48 r16r24 v69 >>b48r24 v56 <<<a6&a192 v69 >>>b16&b64r32r192 v62 <<a48r16. v75 >g+64r16 v50 <d32r192 v81 >>f+6&f+192r32r48 v69 <<d+12&d+192r192
'X1 v56 o4 d+12&d+64r192<g+16r12r64 v75 >>>e64&e96r16. v69 a64r12r192 v50 <<e64&e96r64r96 v62 <a4&a16>a32r12r192 v75 >>b64r96 r24 v56 <<<a6&a16&a192r32. v62 >a48r16. v75 >>g+64r24r64 v50 <<d24 v62 d16.r96 v56 >>f+48r32. v62 <<<e32 v50 e8&e48r12r64
'X1 r96 v62 o4 a8&a12&a32r64 v75 >>a48r12r64b64r24 v56 <<<a4&a32&a48r192 v44 a48r16. v75 >>>b48r24 v56 <<<a16&a96& a12&a64r192 v75 >>>b32&b48r16 v69 a48r16. v75 g+64r24r64 v56 <<<d32r96 v81 >>>f+8&f+48r96 v56 <<<d+4&d+192r24 v75 >e12&e64&
'X1 o4 e64r96 v62 e64&e96r16. v75 >>a64r12r64b48r32 v62 <<<a4&a32&a48r192 v56 >a32&a192r12 v75 >>b64r24 v62 <<<a8.&a64& a64&a96r16>a48r16. v69 >>g+64r24r64 v62 <<<d6&d192r32r192 v69 e8.&e192r12r32 v75 a8&a12&
'X1 o3 a32r192 v62 >>>>c+24&c+64 v69 d12r64r96 v62 <b24r64 v56 a24&a64r96b24r64a32&a48r192 v62 g+24&g+64r64 v56 f+24r192 v62 a16 v44 <c+32r48 v62 >f+32&f+48r96 v50 <<g+16&g+24r48 v44 >c+64&c+96r32r192 v56 >f24&f64r192 v62 c+96& c+32r96d+32&d+48r16 v56 c+64&c+96r64 v50 <<f+12&f+64r32 v62 >>f+16r32.a32&a48r192g+24r96 v37 <f+192r192 v62 >a24&a64b32&b48r192 v56 <<f16..r96 v62 >>>c+32&c+48r96c+32&c+48c+16r192d64&d96&
'X1 o7 d48r192c+12r32r192 v50 <<<f+16..r64 v44 >c+64&c+96r24 v62 >g+32.r192 v50 <<a64&a96r32 v69 >>a16&a192r32.f+32&f+48r96 v50 <<g+8r24r64 v62 >>e24&e64r192 v37 <e32&e192r48 v62 >d+32.r96e64& e32&e192r96c+16r24r64e32&e48 v69 f+16r24r64 v62 c16c+32&c+48r192 v37 <d+64&d+96r32 v56 >c16&c96 v62 c+16&c+64r6r32>c+32&c+48r192 v69 d32&d48r192 v62 c+48&
'X1 o7 c+24r24r64 v44 <<<f+16..r64>c+48r32r192 v62 >g+32&g+48r96f+32&f+48r96a16 v25 <c+32r48 v69 >f+32.r96 v50 <<g+16&g+24&g+64 v62 >>g+32&g+192r48 v56 f32&f48r96 v44 <c+64&c+96r64r96 v62 >d+16&d+192r32r48c+96& c+48r64r96 v50 <<f+16.r64 v44 >c+64&c+96r24 v56 >g+32r64 v50 <<a64&a96r32r192 v62 >>g+24r192 v50 <c+48r32. v69 >b32.r96 v37 r192 v62 >c+32&c+48c32.r64c+32.r192c32&c48r192c+16&c+192r24r64c+16&c+192r32r48 v50 <<<f+48&
'X1 o4 f+12r48>c+48r32r192 v62 >g+32&g+48r192 v44 <<a64&a96r32r192 v62 >>a16 v44 <<a64&a96r64r96 v69 >>f+24&f+64r192 v56 <<g+16&g+24&g+64 v50 >c+48r32r192 v62 >e32&e48r96c+32&c+48r192d+32.r96e32.r96c+24&c+64r192d+16&d+192& d+24r192 v50 <d+48r24 v62 >d+32.r192c24&c64c+32.r192d+32.r64 v56 c16r192 v62 c+12&c+192r6r192e16r24r64c+24r96<b32.r64 v56 a32&a48r96b24
'X1 r64 v62 o6 c+32r64r96d24&d64r192e32.r192f+24r48g+24&g+64r24r64 v56 <<b8&b48r32r192 v62 >>e48r32r192 v50 <<g+16.r48 v62 >>c+32&c+192r64 v69 <b48r24 v62 <a8r24 r96>>d32.r96 v69 e32.r96f+24&f+64r32r48 v62 a16 v69 a+8r192 v62 b96r16r24r64 v37 <<g+48r32r192 v56 >>d16&d96r32. v62 <b32.r96 v56 a32&a48r64b24r64 v50 c+64&c+96r32 v62 >d64&d96&
'X1 o6 d48r96e32.r192f+32.r64g+32.r192 v69 a32r32r192 v62 <<b16&b24&b64 v69 >>f+32&f+48 v56 e48r24 v50 <<g+16&g+24r192 v69 >>c+32&c+48r64 v62 <b24&b64r96 v50 <a32r64r96 v62 >>e32&e48r96 v56 <<f+48r32 v62 >>c+32.r192 v50 <<d32& d192r48 v56 >>d16<<e48r32.>b32&b48r192 v50 <<a6&a16r32r192 v62 >>>>c+32&c+48r96d32.r96c+16r32r48 v44 <<<f+16&f+24r48>c+48r32r192 v56 >g+32.r96 v50 <<a64&a96r48
'X1 r48 v62 o6 a24&a64r24r64f+32.r96 v50 <<g+8 v44 >c+64&c+96r32 v50 >f32&f48r96 v44 <c+32r48 v62 >d+16&d+96r24 v56 c+24r64 v50 <<f+12&f+192r32>c+64&c+96r32r192 v62 >g+24r96a24r64g+24r192 r64 v56 <<a48r32 v69 >>b32&b48r64 v62 >c+12&c+32r96 v69 c+16r32r48c+16r32r48 v62 c+24&c+64r96<a+64&a+96r32<<<b8&b192r32r48>>>>c+24r64 v69 d32&d192r64r96c+32.r192 v44 <<<f+64&f+96r192
'X1 r48 v62 o7 c+32&c+48r64 v56 <<<<b6&b16&b192r24 v62 >>>a24&a64r192 v50 <<b32&b48r16 v69 >>a32&a48r192b6&b192r96f16&f192r32r192 v56 <<b32r64r96>>f24&f64& f192r96 v69 f+12&f+32r8r64r96 v56 e32&e48r192d16&d192r32r48 v62 <b24r96 v50 <a8r192 v44 >e64&e96r32 v56 >d32.r96 v62 e32.r96f+32&f+192r64g+32&g+48r192 v69 a64r32. v56 <<b64&
'X1 o4 b8 v25 b48r96 v62 >>e48r24 v69 e16r24c+32&c+48r64 v62 <b64r32r48 v69 a24&a64r192 v62 b32.r96 v50 c+32r64r96 v62 >d32&d48r192 v69 e32.r96f+32&f+48r192 v44 <e48r64r96 v62 >a16&a192r192 v50 <<e32.r64r96 r32r48 v62 >>b32r12r64 v44 <d48r24 v56 >d24&d64 v44 <d48r24 v56 b32&b192r48a32&a192r64r96 v62 b24r64 v44 c+48r24 v62 >d32&d192r192 v44 <c+48r32r48 v62 >f+24r96g+24&g+64 v69 a64&a96r32 v62 a12&a32
'X1 r192 v69 o6 f+32.r16r192e16r32r48 v62 c+32r64r96<b24&b64r64 v50 <a48r32r192 v56 >>e32&e48r192 v62 <a32.r96>c+24r96 v50 <<d64&d96r24 v56 >>d24r96<g+32&g+192r48b24r64 v50 <<a6&a96& a24&a64r32r192 v62 >>>>c+24r96 v69 d32.r64 v62 c+32&c+48r192 v56 <b24r48a24&a64r96b32&b192r48 v44 <c+48r32r192 v56 >g+32.r192 v62 f+32.r64a16r16f+32&f+192r64 v50 <<g+8r96 v44 b64&b96r64r96 v50 >>f96&
'X1 o6 f64&f96r64<<b32r32 v62 >>d+32&d+48 v56 f64&f96r32r192 v62 c+32r48 v56 <<f+16&f+24r48 v62 >>f+24&f+64r32.a32&a48r96g+24r64 v50 <<a64&a96r32r192 v62 >>b32.r64<<c+16..r192 v56 g+24&g+64r192 v62 >>>c32.r96 v69 c+48& c+64&c+96r192 v62 c8&c48r32<<<<b8&b96r32r48>>>>c+32&c+48r96 v50 <<<f+48r32. v62 >>>c+24r96 v50 <<<b32r64r96 v62 >>>c+12&c+32r192c+6&c+192 v69 <g+24&g+64r64
'X1 r24 v62 o6 b32&b48r24r64a8&a12&a64r64 v56 <<c+8&c+192r32 v62 >>f32.r48<<a8&a12r32. v75 >>a64r16.. b32r64 v56 <<<a4&a16&a192r192 v69 >>>a64r16r24 v75 b64r32. v56 <<<a8&a12&a64r16r96 v69 >>a64r12r64 v75 g+64r48
'X1 r32 v62 o3 d32. v75 >>g+16&g+24&g+64>g+64&g+96r96 v56 <<<d+6&d+32.r64r96 v50 b4&b192r16r192 v56 >e48r12r192 v62 e48r32. v56 <a64&a96& a4&a192r64r96 v75 >>>a96r16r24 v62 b48r32r48 v56 <<<a8..r32r48 v75 >>a64r12r64g+96r16 v62 <<d32&d192 v75 >>f+32&f+192&
'X1 o5 f+16r192 v62 <d24r64 v69 <e16r192 v81 >>>g+12&g+64r64 v56 <<e32r16. v75 <a6&a16&a64>>>a64&a96r12r64<b64r32 v56 <<a8&a64&a96& a8&a32r192 v75 >>>a48r16r24b64r32r48 v62 <<<a6&a16r16r192 v69 >>a64r16r192 v50 <a48r192 v75 >g+64&g+96r32r48 v62 <<d8&d32&d192&
'X1 o3 d24&d64r32r192 v75 >d+16&d+24r192 v56 d+16&d+96r192 v62 <e8&e12r16.>e48r12r64 v75 >>b64r32 v62 <<<a4& a32&a48r48>>>a48r16. v75 b64r24r64 v62 <<<a6&a16&a192r32.>a48r16. v75 >g+64r32. v56 <<d6 v69 >>b48r32<<e16&
'X1 o3 e12&e32r16r24r64 v75 a6&a16&a64r96 v62 >>b32&b48r192a32&a192r64g+64&g+96r32 v56 a32.r96>c48r16r24 v44 <e48r12r192c48r32 r64 v62 >c32r48 v37 <c48r32 v56 >c12&c192r16. v44 <c48r12r64 v62 >f24r64e32.r192d+32.r48 v56 e32&e192r64 v44 <<a16&a24r48 v62 >>g+32.r96a32&a48 v69 b16r24 v75 g+96&
'X1 o6 g+32.r24r64 v81 >c3&c96r96 v75 c12&c192r192 v69 <a32r16r24r64f+48r12r64g64r16. v62 f+64r32r48 r64g8&g64r96 v69 a48r12r64g48r16. v62 f+64r16 v56 g6&g96r12r192<<<b48r12r64 v44 >b48r16.. v62 >>e192&
'X1 o6 e12r8r32r192<b32.r192a32r48 v56 g+64&g+96r32r192a32&a192r48>c64r16r24 v44 <e48r16.c48r32. v62 >c32&c192r192 v44 <e48r24 v56 >c32.r64 v44 <<a16& a32&a192r64r96 v37 >e64r12r64 v62 >f24r64e24r96d+24r48 v56 e32.r96 v62 b32.r64a32r48g+32&g+192r64a32&a48r96 v50 <<a16&a96r64r96 v75 >>g+32.r16r96>c8&c48&
'X1 o7 c8.r96 v56 <<c12r192 v62 >g64&g96r192 v69 b64&b96r12r64f+64r12r64 v62 g48r12r192 v37 <<e32&e192r32r192 v62 >>g32&g192r192 v69 b64&b96r16.a48r16r64 r48g64r16. v62 f+48r16r192g32r192b64r12r192 v69 a64r16r24 v62 g48r16r24 v44 <<b48r16r24e6&e16&e64r192 v69 >>e48&
'X1 o6 e192r16. v75 f48r16. v56 <<c32&c48r16 v81 >>g16&g192r32r48 v56 <<e32r48 v75 >>g32&g48 v69 f24r96 v62 e48r32. v81 <b6&b16r96 v62 >e48r16r192 r32 v56 f48r16. v62 g48r12r64 v50 e64r16r24<<e48r32 v62 >>g24r96 v56 f48r32e48r32. v44 <<g6r12r192 v62 >a48r12r64 v69 >d64
'X1 r16. v62 o3 a8.r24r64>c24r96 v69 >>e32.r192d64&d96r48 v62 c64&c96r24 v69 <b6&b32r32r192 v62 >c48r16r24 v56 d64r16r192 r32 v50 <<<a48r16.>a48r16. v44 c32r32 v62 >>e24r96 v56 d64r32c48r24r64 v44 <<e6&e32.r48 v62 >b32&b48 v56 a32&a192r48g+48r64r96 v50 a32&a192r32>c64r64r96
'X1 r12 v37 o5 c48r16. v44 c48r32 v62 >c24r64 v37 <c64&c96r48 v56 >c24&c64r96 v44 <<a12&a64r64r96>e48r12r192c48r24 v62 >e32.r96d+32&d+192r48 v56 e24r48 v37 <c32&c48r32r48 r192 v62 >g+32.r192a24&a64r32r48a32&a48 v50 <c48r32 v69 >a16&a96r16r24r64 v56 <d+16..r192 v75 >a8..r48 v56 <<e32r16r64>e64&e96r32.
'X1 r32r48 v44 o4 d64&d96r12r192 v50 b64&b96r12r192c32r12r192a64&a96r16.d32r12r192 v62 >>d64r16.. v69 c6&c16&c192& c32r192 v56 c24r192 v62 <b64&b96r64r96 v50 a48r32b32r96>c192r4 v69 e48r12r64 v75 f64r16r24 v56 <<c6&c64r24r64e64&e96r96
'X1 r48 v75 o6 g32&g48r32. v62 e64&e96r32r192 v75 d6&d32.r48 v62 e64&e96r12r64 v56 f64r16r24 v44 <<c64&c96r16. v62 >>g48r12r64 v50 <<e48r64r96 v62 >>g32.r192 r192 v56 f64&f96r64r96e48r24r64 v44 <<g8.r24 v62 >>c48r16r24 v69 d64r12r64 v62 <<<a8.&a64r32 v56 >c32&c192r64r96 v69 >>e32.r32r48
'X1 v62 o6 c48r32r192 v69 <<e8&e64&e96r16. v56 >>c64r12r64 v62 <b48r12r64 v50 <<a32r12r192 v44 >a48r16r24c32r32 v62 >>e24 v44 <c64&c96r32 v56 >c64&c96r32 r96 v50 <g+16..r8r96 v62 b24&b64a32&a192r48 v56 g+64&g+96r32a32&a192r48>c64r16.. v37 <c48r16r64 v50 c64&c96r24 v62 >c32&c192r192 v37 <c64&c96r24 v62 >c24r64 v44 <<a24&a64&
'X1 o4 a24r48>c48r12r192c48r32. v62 >e24r96d+24r96 v56 e32&e48r96 v44 <<a12&a192r64r96 v62 >>g+24r96a24&a64r32r48a32.r96 v50 <c64r64r96 v69 >a16r192 v81 >c8&c64&c96& c4&c16r192 v56 <<<e64&e96r12 v50 >e48r16.. v44 <d32&d192r12 v69 >>g+48r16. v50 <<c16r16 v62 >>e48r16
'X1 r64r96 v50 o4 d32r12r192f48r16r24 v69 >>c8&c12&c32r32r192 v62 c32r96<b32r64 v56 a48r32b64&b96r64r96<<a6&a16r96 v50 a48 r24 v69 >>>a48r32<b48r64r96 v50 <c+4&c+24r64 v69 >a48r32r192 v62 >a64r32 v75 <b32r32r192 v56 <<a4&a48r192 v75 >>a32r48 v62 >a64r32r192
'X1 r192 v75 o5 g+64&g+96r64r96 v69 >g+64r48 v62 <<<d6&d16r48 v81 >>a6&a96r32r48<e12&e32r192 v75 e64&e96r32 v44 >>e32&e192r64 v69 <a48r32>a32r64r96<b32r48>b32&b192& b4&b32r96<a48r32. v62 >a32r96 v50 <<a64&a96r64r96 v69 >>b8&b12&b64r96 v62 b16&b192r32.a64r32r192 v75 <g+64&g+96r32 v56 >g+48r48<<<f+192r192 v75 >>f+32&f+192&
'X1 o5 f+16&f+24&f+64r192 v69 <<e16r192e6&e32r64 v50 r32 v75 a4&a96r32. v69 >>>a32r64<b32&b192r48 v56 <c+8&c+64&c+96& c+8&c+48r64 v69 >a48r32r192 v62 >a48r32 v75 <b64&b96r32r192 v56 <<a4&a48r96 v75 >>a64&a96r48 v62 >a64r24 v75 <g+64&g+96r64r96 v69 >g+48r64 v62 <<<d8.&d192&
'X1 o3 d24r48 v81 >>a6&a96 v50 <<b16r32. v56 >>>g+12r32 v44 e32&e192r64 v69 <a64&a96r64r96>a32&a192r48<b32r48>b4&b16&b96 r192<a64&a96r24 v62 >a32r96 v50 <<a64&a96r32 v69 >>b8&b12&b64r192 v62 b16&b192r32r48a32r64 v75 <g+64&g+96r32 v56 >g+48r64r96<<<f+8&f+32r64 v69 e32&e48r96e16.&
'X1 o3 e16&e24r64 v56 a3&a8&a64r96 v62 a3&a16& a16.r192a3&a16&a64r96 v56 >a32.r48<a3&a16&a64&
'X1 o3 a32.r192 v44 a12r12 v62 >d16&d24&d64 v69 d16..r192 v62 d16&d192r48 v56 <a16&a24r32r192 v69 >>>>d12&d32r192<<<a16&a24r192a12&a192& a192r192 v56 <e32.r12r32 v62 >e16&e24r192 v75 e16..r192 v56 >>e8&e64r192 v69 <<a8&a96r96 v56 a16..r192a16..r192 v62 a12&
'X1 o4 a6&a64r192a12&a32 v69 a12&a32 v56 a16r192<a2&a64 v75 >>>a3&a8&a64r96 v37 <<c+3&c+8&c+32r96 v62 <e64&
'X1 o3 e3&e8&e96 v50 >a32&a48r96 v37 e32.r192 v50 >c+64&c+96r32r192 v37 e24r192 v56 >a64&a96 v62 >c+64&c+96r64r96 v37 <<e24r48 v44 c+48r64r96 v56 >>c+64&c+96r192 v50 <e32&e192r96 v37 <<a64&a96r192 v56 >>>c+96& c+4&c+16&c+96r64r96 v44 <<e64&e96r32 v56 >a32r24 v37 <e32&e192r64r96 v44 c+64&c+96r32 v50 e32&e192r48<a64&a96r32r192>e32&e192r64c+32r64r96e64&e96r32 v62 >>d24r96c+32&c+192r48 v56 <b192&
'X1 o6 b48r32 v44 <e32r48 v69 >>d24r96c+32&c+48r96 v50 <<c+32r64r96 v44 e64&e96r64r96 v75 >>d3&d8 v69 d64&d96r32. v50 <<e32&e192r64 v62 c+32r24r64 v37 e64&e96r96 v56 <a32&a192r32 v37 >e24r48 v56 c+64&c+96r32r192 v50 e32r24 v75 >b2&b12&b32r12
'X1 r32r48 v50 o4 a8&a192r192 v62 a12&a32r192a4&a64&a96 v56 a16&a24r96 v62 a12&a32r192a16&a96 v56 <a16..& a4&a6r192 v75 >>>a4&a6&a16&a64r192 v56 <<e16&e64&
'X1 o4 e24&e64r192 v62 a12&a32 v69 a12&a32r192 v62 a16..r48 v56 <g+192r16r24r64 v69 >e16&e24r96e12&e32 v75 >>e8r64 v56 <<e16&e64& e4&e32r96 v75 >>c+12&c+192r64 v56 <<c+3&c+8&c+96r192 v44 <a8&a192&
'X1 o3 a3r192 v56 a4r192a4&a24r192 v75 a16..& a48r8r32>a8&a64r8r32c+4.&c+64r1r1r1r1r1r1r1..r32r48

'X2 @1 v62 r1 r1
'X2 r1 r1
'X2 r1 r1
'X2 r1 r1
'X2 r1 r1
'X2 r1 r1
'X2 r1 r1
'X2 r1 r1
'X2 r1 r1
'X2 r1 r1
'X2 r1 r1
'X2 r2.r6r16o5 a48 r2r3r96 v56 o3 d+8&d+32
'X2 r1 r6r32. v62 o4 a16&a192r2r8..
'X2 r2r3r8r64r96o6 a64& a6r3r16r192 v75 g+64&g+96r8.r64b32&b48r8r64r96
'X2 r2.r6r16o5 b48& b48r2.r6r16
'X2 r1 r1
'X2 r1 r1
'X2 r1 r1
'X2 r1 r1
'X2 r1 r1
'X2 r1 r1
'X2 r1 r1
'X2 r4r192 v56 o6 a16..r2r8r96 r1
'X2 r1 r1
'X2 r1 r1
'X2 r1 r2.. v62 o6 a32.r16r64
'X2 r4r16r64o6 f+32.r2r8 r2r6r16 v69 b24r6r16
'X2 r8.r64 v81 o5 g+64r8r12 v56 <<g+4&g+24r4r32 r32r192 v69 >a8&a192r192 v44 >>e12&e192r4r192 v69 <<a16&a24&a64r3r32
'X2 r2.r6r64o4 a16&a192& a24&a64r192 v56 a12&a192r3r32. v75 >>b24r4r6r192g+192&
'X2 o6 g+32.r2...r64 r3r16.b16&b192r2r192
'X2 r1 r1
'X2 r1 r1
'X2 r1 r1
'X2 r1 r1
'X2 r1 r1
'X2 r1 r1
'X2 r1 r1
'X2 r1 r1
'X2 r1 r1
'X2 r1 r1
'X2 r1 r1
'X2 r1 r2.r24 v56 o4 e12&e64r16..
'X2 r6r16r192 v75 o5 g+12r2r6r64 r16r64>>c+8&c+12r4r32r192 v62 c+6&c+64r6r16r64
'X2 r2r3r8r96 v56 r32 r2r192o4 e12&e64r3r16
'X2 v69 o6 g+32&g+192r2.r96 v50 <<e8.&e192 v44 e96& e32r4r96 v62 >>>c+6&c+96r4r16r64 v75 <<b32&b192r6
'X2 r4r6r192o4 a16&a24&a64r192 v50 a12&a64r192 v56 a8&a64r96a16&a24r96 v62 a12& a32r96 v44 c+32&c+48r96 v56 e32r2r32. v69 >>>c+12&c+32c+12&c+64r192c+12&c+64&
'X2 o7 c+64r192 v50 c+32&c+48r2r48 v44 <<<e24r3r32 r4r6r16 v56 c+2&c+96r192c+192&
'X2 o4 c+2r16. v69 >>>c+16..r192 v62 c+12&c+64r192 v69 c+16&c+24r192 v62 c+16&c+192r96 r2r192 v75 c+3&c+8&c+64&c+96r96
'X2 r1 r1
'X2 r1 r2.r16r96 v56 o6 c+6&c+96&
'X2 o6 c+3&c+32.r96c+2&c+12&c+64r96 r32r48 v69 b8..r96b8&b192r3r8r32 v37 <<c+12&c+64&
'X2 o4 c+3&c+16&c+64r4r6r16 v62 c+16..& c+3&c+16r64r96 v81 >>a3&a8&a96r16..
'X2 r8r48 v56 o4 a16&a24&a64r192 v69 >>c+24&c+64r8. v75 >c+16&c+192r6r192 v81 e16&e24r8r64 r6r64 v75 <<a8&a96r8r32r192a4.&a96r1r1r1r1r1r1r1..r32r48

'X3 @1 v50 r1 r1
'X3 r1 r1
'X3 r1 r1
'X3 r1 r1
'X3 r1 r1
'X3 r1 r1
'X3 r1 r1
'X3 r1 r1
'X3 r1 r1
'X3 r1 r1
'X3 r1 r1
'X3 r1 r1
'X3 r1 r6r32.o4 e16&e192r2r8..
'X3 r1 r16r24 v75 o5 b32&b48r2r3r96
'X3 r1 r1
'X3 r1 r1
'X3 r1 r1
'X3 r1 r1
'X3 r1 r1
'X3 r1 r1
'X3 r1 r1
'X3 r1 r1
'X3 r4r32r48 v69 o6 g+16&g+24&g+64r2r16r64 r1
'X3 r1 r1
'X3 r1 r1
'X3 r1 r1
'X3 r1 r2r6r16 v75 o5 b24r6r16
'X3 r1 r2r8r192o6 b24&b64r4r16
'X3 r1 r2r32 v69 o5 b24r4r6r192 v75 g+192&
'X3 o5 g+24r2r3r8 r3r16.b16&b192r2r192
'X3 r1 r1
'X3 r1 r1
'X3 r1 r1
'X3 r1 r1
'X3 r1 r1
'X3 r1 r1
'X3 r1 r1
'X3 r1 r1
'X3 r1 r1
'X3 r1 r1
'X3 r1 r1
'X3 r1 r2r3r96 v62 o6 b32.r16..
'X3 r4r32r192 v69 o6 g+32&g+192r2r6r96 r2r8r96 v56 <<a16.. v75 >a64&a96r6r16
'X3 r2r3r8r96o7 c+32& c+8&c+64&c+96r4.r32 v62 <b32.r3r16
'X3 o3 d+192r192f+6&f+96r2.r16 r3r48 v50 >e12&e32r2r32
'X3 r4r6r192o4 e16&e24&e64r96 v37 e12&e64r192 v62 e3&e96& e32r96 v37 e24&e64r192 v56 c+3&c+8&c+32r8r48 v69 >>b8&b12r96 v56 e24&
'X3 o6 e12r2.r6 r2r24r64 v75 >c+3&c+16..&
'X3 o7 c+24r192 v69 c+2&c+24r16<b6&b32. v56 e192r16.<<<d32&d192& d8&d96r4. v69 >a8&a96r3r48
'X3 r1 r1
'X3 r1 r2r3r48 v56 o4 c+8&c+48&
'X3 o4 c+4.&c+96r192c+2&c+192r24r64 v44 a32.& a16r96 v56 a12r96 v69 a12r96 v62 a8&a64&a96r2r64r96a16&
'X3 o4 a24&a64r192 v44 e3&e8&e64&e96r4..r64 r4r24 v56 a16&a24r4.r96a8..&
'X3 o4 a32r3r8r64r96 v75 >>c+16&c+192r6r192e12&e64r8r48 r6r64 v62 <<<a8&a96r8r32r192a4.&a96r1r1r1r1r1r1r1..r32r48

'X4 @1 v69 r1 r1
'X4 r1 r1
'X4 r1 r1
'X4 r1 r1
'X4 r1 r1
'X4 r1 r1
'X4 r1 r1
'X4 r1 r1
'X4 r1 r1
'X4 r1 r1
'X4 r1 r1
'X4 r1 r1
'X4 r1 r1
'X4 r1 r1
'X4 r1 r1
'X4 r1 r1
'X4 r1 r1
'X4 r1 r1
'X4 r1 r1
'X4 r1 r1
'X4 r1 r1
'X4 r1 r1
'X4 r1 r1
'X4 r1 r1
'X4 r1 r1
'X4 r1 r1
'X4 r1 r1
'X4 r1 r2r8r192o5 b24&b64r4r16
'X4 r1 r1
'X4 v56 o3 d+16.r2..r32 r1
'X4 r1 r1
'X4 r1 r1
'X4 r1 r1
'X4 r1 r1
'X4 r1 r1
'X4 r1 r1
'X4 r1 r1
'X4 r1 r1
'X4 r1 r1
'X4 r1 r1
'X4 r1 r1
'X4 r1 r1
'X4 r4r32r192 v62 o3 d+192r192f+16..r2r16. r2. v69 >a32&a48r6r32
'X4 r1 r1
'X4 r1 r3r8r192o4 a24&a64r4r6r16
'X4 r2r6r192 v75 o6 e4&e16&e64& e8&e96 v62 e4.&e32r4r6 v75 b24&
'X4 o6 b16&b96r2r3r16. r1
'X4 r2r3r32 v69 o6 b16&b24&b64r64 r1
'X4 r1 r1
'X4 r1 r2r3r48 v62 o6 e8&e48&
'X4 o6 e4&e6&e192r192 v69 <<e2r16r96 r3r32r192 v56 <d2&d32&d192r16.
'X4 r3r16r192o3 e2&e96r12r192 r4r24r64 v44 >>>e16&e96r2r16r24r64
'X4 r1 r1r1r1r1r1r1r1r1.r6

'X5 @1 v56 r1 r1
'X5 r1 r1
'X5 r1 r1
'X5 r1 r1
'X5 r1 r1
'X5 r1 r1
'X5 r1 r1
'X5 r1 r1
'X5 r1 r1
'X5 r1 r1
'X5 r1 r1
'X5 r1 r1
'X5 r1 r1
'X5 r1 r1
'X5 r1 r1
'X5 r1 r1
'X5 r1 r1
'X5 r1 r1
'X5 r1 r1
'X5 r1 r1
'X5 r1 r1
'X5 r1 r1
'X5 r1 r1
'X5 r1 r1
'X5 r1 r1
'X5 r1 r1
'X5 r1 r1
'X5 r1 r1
'X5 r1 r1
'X5 r1 r1
'X5 r1 r1
'X5 r1 r1
'X5 r1 r1
'X5 r1 r1
'X5 r1 r1
'X5 r1 r1
'X5 r1 r1
'X5 r1 r1
'X5 r1 r1
'X5 r1 r1
'X5 r1 r1
'X5 r1 r1
'X5 r1 r1
'X5 r1 r1
'X5 r1 r1
'X5 r1 r1
'X5 r24o3 d12r2.. r1
'X5 r2.r6r16 v50 r48 r1
'X5 r1 r1
'X5 r1 r2..r64 v75 o4 a16..&
'X5 o4 a32&a48r2.r6r32 r1
'X5 r1 r1
'X5 r1 r1r1r1r1r1r1r1r1.r6

'X6 @1 v56 r1 r1
'X6 r1 r1
'X6 r1 r1
'X6 r1 r1
'X6 r1 r1
'X6 r1 r1
'X6 r1 r1
'X6 r1 r1
'X6 r1 r1
'X6 r1 r1
'X6 r1 r1
'X6 r1 r1
'X6 r1 r1
'X6 r1 r1
'X6 r1 r1
'X6 r1 r1
'X6 r1 r1
'X6 r1 r1
'X6 r1 r1
'X6 r1 r1
'X6 r1 r1
'X6 r1 r1
'X6 r1 r1
'X6 r1 r1
'X6 r1 r1
'X6 r1 r1
'X6 r1 r1
'X6 r1 r1
'X6 r1 r1
'X6 r1 r1
'X6 r1 r1
'X6 r1 r1
'X6 r1 r1
'X6 r1 r1
'X6 r1 r1
'X6 r1 r1
'X6 r1 r1
'X6 r1 r1
'X6 r1 r1
'X6 r1 r1
'X6 r1 r1
'X6 r1 r1
'X6 r1 r1
'X6 r1 r1
'X6 r1 r1
'X6 r1 r1
'X6 r32r48o3 f+3&f+8&f+96r4r6r16 r1
'X6 r1 r1
'X6 r1 r1
'X6 r1 r1
'X6 r1 r1
'X6 r1 r1
'X6 r1 r1r1r1r1r1r1r1r1.r6

